<svg width="130" height="134" viewBox="0 0 130 134" fill="none" xmlns="http://www.w3.org/2000/svg">
<g clip-path="url(#clip0_299_303)">
<path d="M70.2587 9.21999C70.2587 10.29 70.2787 11.36 70.2487 12.43C70.2387 12.92 70.4287 13.1 70.8887 13.18C76.8687 14.19 82.3687 16.4 87.3287 19.89C96.6387 26.43 102.649 35.27 104.559 46.49C107.199 61.95 102.489 75.06 90.7487 85.49C84.6287 90.92 77.3787 94.16 69.2587 95.1C55.2287 96.74 43.2187 92.41 33.4787 82.17C27.5987 75.99 24.0287 68.57 22.8587 60.12C21.1187 47.58 24.3487 36.39 32.6487 26.79C38.9687 19.48 46.9787 15.02 56.4687 13.22C57.9087 12.95 57.9087 12.94 57.9087 11.47C57.9087 9.62999 57.8887 7.79999 57.9187 5.95999C57.9687 2.76999 60.5487 0.199989 63.8487 -1.13128e-05C66.8387 -0.170011 69.7587 2.14999 70.1287 5.15999C70.2887 6.48999 70.1587 7.84999 70.1587 9.19999C70.1787 9.21999 70.2187 9.21999 70.2587 9.21999ZM52.7787 39.32C55.0587 39.32 57.3387 39.31 59.6187 39.33C60.1587 39.33 60.3787 39.16 60.3687 38.6C60.3487 36.93 60.3787 35.25 60.3487 33.58C60.3487 33.31 60.2187 32.97 60.0187 32.8C58.5587 31.44 57.8487 29.79 57.8787 27.79C57.9087 25.65 57.8887 23.51 57.8787 21.37C57.8787 20.69 57.7987 20.62 57.1287 20.79C55.7987 21.12 54.4487 21.4 53.1587 21.84C43.6887 25.13 36.8287 31.35 32.7387 40.5C29.9087 46.83 29.2087 53.46 30.4987 60.27C32.0087 68.26 35.9088 74.91 42.1788 80.08C50.1288 86.64 59.2886 89.1 69.4386 87.46C78.0386 86.07 85.0987 81.83 90.4687 74.97C96.7287 66.97 98.9188 57.87 97.1788 47.87C96.1188 41.77 93.4487 36.39 89.3687 31.74C84.4287 26.12 78.2987 22.5 70.9987 20.87C70.3087 20.71 70.2487 20.76 70.2487 21.5C70.2487 23.6 70.2387 25.7 70.2487 27.8C70.2587 29.76 69.5687 31.41 68.1187 32.75C67.8987 32.95 67.7387 33.32 67.7287 33.62C67.6887 35.21 67.7087 36.81 67.7087 38.4C67.7087 39.32 67.7087 39.32 68.6587 39.32C72.8787 39.32 77.0888 39.32 81.3088 39.32C81.7288 39.32 82.1686 39.31 82.5686 39.4C85.6586 40.05 87.1486 43.25 85.6886 46.08C84.0986 49.14 82.4987 52.19 80.8887 55.25C76.6387 63.36 72.3887 71.47 68.1287 79.57C67.2687 81.21 65.9087 82.1 64.0287 82.09C62.1587 82.08 60.8088 81.2 59.9288 79.57C59.4688 78.72 59.0287 77.86 58.5787 77C53.1787 66.69 47.7687 56.39 42.3887 46.07C40.7187 42.87 42.8587 39.36 46.4687 39.33C48.5787 39.31 50.6787 39.32 52.7787 39.32Z" fill="#A4A5A9"/>
<path d="M43.9596 114.45C43.9596 109.65 43.9596 104.85 43.9596 100.04C43.9596 98.9902 43.9596 98.9902 44.9796 98.9902C46.8596 98.9902 48.7296 98.9902 50.6096 98.9902C51.4796 98.9902 51.4896 99.0002 51.4896 99.8702C51.4896 107.5 51.4896 115.12 51.4896 122.75C51.4896 123.82 51.4897 123.83 52.5397 123.82C54.0097 123.82 53.8796 123.94 53.8796 122.49C53.8796 115 53.8796 107.52 53.8796 100.03C53.8796 98.9902 53.8797 98.9902 54.9097 98.9902C56.8097 98.9902 58.6996 98.9902 60.5996 98.9902C61.3896 98.9902 61.4097 99.0202 61.4097 99.8202C61.4097 107.47 61.4097 115.12 61.4097 122.76C61.4097 123.62 61.1897 123.87 62.3997 123.83C62.7997 123.82 62.9796 123.97 62.9796 124.4C62.9696 127.08 62.9696 129.77 62.9796 132.45C62.9796 132.86 62.8297 133.04 62.4097 133.04C61.0397 133.03 59.6697 133.03 58.2897 133.04C57.8997 133.04 57.7496 132.86 57.7596 132.48C57.7696 131.87 57.7297 131.27 57.7697 130.66C57.8097 130.09 57.5697 129.92 57.0297 129.93C54.8697 129.95 52.7097 129.94 50.5497 129.94C48.6297 129.94 46.7197 129.94 44.7997 129.94C43.9397 129.94 43.9297 129.93 43.9297 129.05C43.9597 124.17 43.9596 119.31 43.9596 114.45Z" fill="#A4A5A9"/>
<path d="M16.3984 115.78C16.3984 111.38 16.3984 106.98 16.3984 102.58C16.3984 101.74 16.4284 101.71 17.2384 101.71C21.9784 101.71 26.7184 101.71 31.4684 101.71C32.2784 101.71 32.3184 101.74 32.3184 102.57C32.3184 111.41 32.3184 120.25 32.3184 129.09C32.3184 129.9 32.2884 129.93 31.4484 129.93C29.7284 129.93 28.0185 129.93 26.2985 129.93C25.4585 129.93 25.4584 129.92 25.4584 129.09C25.4584 122.19 25.4584 115.29 25.4584 108.39C25.4584 107.38 25.4585 107.38 24.4185 107.37C23.2785 107.37 23.2784 107.37 23.2784 108.52C23.2784 115.34 23.2784 122.16 23.2784 128.98C23.2784 129.92 23.2784 129.93 22.3584 129.93C20.6384 129.93 18.9284 129.93 17.2084 129.93C16.4284 129.93 16.3984 129.9 16.3984 129.1C16.3984 124.66 16.3984 120.22 16.3984 115.78Z" fill="#A4A5A9"/>
<path d="M79.3404 115.87C79.3404 111.45 79.3404 107.03 79.3404 102.62C79.3404 101.83 79.3504 101.82 80.1504 101.82C81.9304 101.82 83.7004 101.84 85.4804 101.81C86.0404 101.8 86.2204 102 86.2204 102.55C86.2004 105.37 86.2104 108.2 86.2204 111.02C86.2204 111.88 86.2404 111.9 87.1004 111.91C88.3904 111.92 88.3904 111.92 88.3904 110.64C88.3904 108.08 88.3904 105.52 88.3904 102.95C88.3904 101.81 88.3905 101.81 89.5505 101.81C91.2005 101.81 92.8604 101.83 94.5104 101.8C95.0304 101.79 95.2204 101.95 95.2204 102.49C95.2104 111.41 95.2104 120.32 95.2204 129.24C95.2204 129.78 95.0204 129.94 94.5104 129.93C92.7604 129.91 91.0004 129.93 89.2404 129.92C88.4104 129.92 88.3804 129.89 88.3804 129.07C88.3804 125.78 88.3804 122.49 88.3804 119.2C88.3804 118.12 88.3804 118.12 87.3304 118.12C87.2104 118.12 87.0904 118.13 86.9704 118.12C86.3904 118.05 86.2004 118.31 86.2004 118.89C86.2204 122.26 86.2104 125.63 86.2104 129C86.2104 129.91 86.2005 129.92 85.3005 129.92C83.6105 129.92 81.9104 129.92 80.2204 129.92C79.3404 129.92 79.3404 129.91 79.3404 129.05C79.3304 124.66 79.3404 120.26 79.3404 115.87Z" fill="#A4A5A9"/>
<path d="M0.879426 114.47C0.879426 109.61 0.879426 104.75 0.879426 99.8805C0.879426 99.0005 0.889412 98.9805 1.73941 98.9805C5.38941 98.9805 9.03936 98.9805 12.6894 98.9805C13.5094 98.9805 13.5495 99.0205 13.5495 99.8305C13.5495 101.34 13.5395 102.86 13.5595 104.37C13.5695 104.92 13.3694 105.12 12.8194 105.1C11.5894 105.07 10.3594 105.11 9.12943 105.08C8.59943 105.07 8.41947 105.27 8.41947 105.79C8.43947 107.3 8.43947 108.82 8.41947 110.33C8.40946 110.84 8.58942 111.06 9.11942 111.04C10.2494 111.01 11.3794 111.05 12.5094 111.03C13.0094 111.02 13.2394 111.18 13.2294 111.73C13.1994 113.24 13.1994 114.76 13.2294 116.27C13.2394 116.82 13.0294 116.96 12.5194 116.95C11.3694 116.92 10.2194 116.96 9.06937 116.94C8.58937 116.93 8.41947 117.12 8.41947 117.58C8.42947 119.44 8.42947 121.29 8.41947 123.15C8.41947 123.64 8.6094 123.83 9.0994 123.83C10.4894 123.81 11.8795 123.85 13.2795 123.82C13.8695 123.81 14.0495 124.03 14.0495 124.6C14.0295 126.13 14.0295 127.67 14.0495 129.2C14.0595 129.73 13.8794 129.95 13.3194 129.95C9.42937 129.93 5.52944 129.93 1.63944 129.95C0.999436 129.95 0.869426 129.7 0.879426 129.13C0.889426 124.23 0.879426 119.35 0.879426 114.47Z" fill="#A4A5A9"/>
<path d="M114.24 115.84C114.24 111.48 114.24 107.13 114.24 102.77C114.24 101.81 114.24 101.81 115.22 101.81C117.54 101.81 119.86 101.78 122.18 101.83C123.16 101.85 124.16 101.96 125.11 102.18C127.48 102.71 128.74 103.99 128.92 106.41C129.1 108.96 129.07 111.52 128.99 114.08C128.9 117.04 127.19 118.23 124.2 118.52C123.44 118.59 122.67 118.58 121.9 118.56C121.31 118.54 121.09 118.73 121.09 119.36C121.12 122.61 121.1 125.85 121.1 129.1C121.1 129.93 121.09 129.93 120.25 129.93C118.52 129.93 116.78 129.93 115.05 129.93C114.28 129.93 114.24 129.89 114.24 129.1C114.24 124.67 114.24 120.26 114.24 115.84ZM125.46 109.6C125.46 107.59 123.83 105.94 121.82 105.94C119.8 105.93 118.18 107.54 118.16 109.57C118.14 111.62 119.78 113.28 121.82 113.27C123.82 113.26 125.46 111.61 125.46 109.6Z" fill="#A4A5A9"/>
<path d="M64.969 115.85C64.969 111.49 64.969 107.14 64.969 102.78C64.969 101.82 64.969 101.82 65.949 101.82C69.179 101.82 72.399 101.82 75.629 101.82C76.429 101.82 76.439 101.83 76.439 102.63C76.439 104 76.429 105.37 76.449 106.74C76.459 107.24 76.2691 107.42 75.7791 107.4C74.7091 107.38 73.639 107.41 72.569 107.39C72.039 107.38 71.809 107.54 71.819 108.11C71.849 109.4 71.849 110.69 71.819 111.98C71.809 112.55 71.989 112.78 72.579 112.76C73.549 112.73 74.519 112.77 75.479 112.75C75.979 112.74 76.209 112.9 76.199 113.45C76.169 114.78 76.169 116.11 76.199 117.44C76.209 117.97 76.009 118.15 75.489 118.14C74.479 118.12 73.469 118.15 72.459 118.13C71.999 118.12 71.819 118.29 71.819 118.77C71.839 120.42 71.839 122.08 71.819 123.73C71.819 124.17 71.9791 124.34 72.4191 124.33C73.6891 124.31 74.959 124.34 76.229 124.32C76.699 124.31 76.9291 124.44 76.9191 124.96C76.8991 126.41 76.8991 127.86 76.9191 129.32C76.9191 129.76 76.7391 129.93 76.3091 129.92C72.7391 129.91 69.169 129.91 65.599 129.92C65.059 129.92 64.959 129.65 64.959 129.21C64.969 127.01 64.959 124.81 64.959 122.61C64.969 120.37 64.969 118.11 64.969 115.85Z" fill="#A4A5A9"/>
<path d="M101.249 118.71C101.249 115.22 101.249 111.73 101.249 108.24C101.249 107.41 101.239 107.41 100.399 107.4C99.5489 107.4 98.6988 107.39 97.8588 107.4C97.4388 107.41 97.2188 107.27 97.2288 106.82C97.2388 105.35 97.2388 103.87 97.2288 102.4C97.2288 101.95 97.4188 101.81 97.8488 101.81C102.449 101.82 107.049 101.82 111.649 101.81C112.129 101.81 112.279 101.98 112.279 102.45C112.259 103.9 112.259 105.36 112.279 106.81C112.289 107.26 112.109 107.42 111.669 107.41C110.779 107.39 109.889 107.4 109.009 107.41C108.159 107.41 108.159 107.42 108.159 108.24C108.159 112.58 108.159 116.92 108.159 121.25C108.159 123.89 108.149 126.54 108.169 129.18C108.179 129.76 107.979 129.95 107.399 129.94C105.599 129.91 103.809 129.91 102.009 129.94C101.439 129.95 101.239 129.77 101.239 129.18C101.259 125.69 101.249 122.2 101.249 118.71Z" fill="#A4A5A9"/>
<path d="M41.5602 115.86C41.5602 120.28 41.5602 124.7 41.5602 129.12C41.5602 129.92 41.5501 129.93 40.7501 129.93C38.9701 129.93 37.2002 129.92 35.4202 129.94C34.8902 129.95 34.6602 129.8 34.6602 129.22C34.6702 120.32 34.6702 111.42 34.6602 102.53C34.6602 101.97 34.8601 101.8 35.4001 101.81C37.2201 101.83 39.0301 101.84 40.8501 101.81C41.4201 101.8 41.5702 102.02 41.5602 102.55C41.5502 106.98 41.5602 111.42 41.5602 115.86Z" fill="#A4A5A9"/>
<path d="M121.819 106.87C123.369 106.88 124.529 108.04 124.539 109.58C124.539 111.14 123.339 112.35 121.789 112.34C120.289 112.33 119.059 111.1 119.049 109.61C119.049 108.07 120.269 106.86 121.819 106.87ZM121.599 110.42C121.649 110.4 121.689 110.39 121.739 110.37C121.849 110.57 121.959 110.78 122.079 110.98C122.309 111.39 123.039 111.61 123.429 111.37C123.499 111.33 123.549 111.17 123.529 111.09C123.459 110.9 123.369 110.71 123.239 110.56C122.669 109.91 122.629 109.27 123.179 108.57C123.329 108.38 123.329 108.07 123.399 107.82C123.059 107.81 122.719 107.76 122.389 107.81C122.259 107.83 122.149 108.06 122.059 108.21C121.929 108.42 121.829 108.65 121.719 108.87C121.599 108.67 121.569 108.51 121.579 108.35C121.599 107.92 121.419 107.74 120.969 107.74C120.509 107.74 120.379 107.93 120.389 108.36C120.409 109.16 120.409 109.97 120.389 110.78C120.379 111.19 120.489 111.42 120.949 111.43C121.429 111.44 121.599 111.22 121.579 110.77C121.559 110.65 121.589 110.54 121.599 110.42Z" fill="#A4A5A9"/>
</g>
<defs>
<clipPath id="clip0_299_303">
<rect width="130" height="134" fill="white"/>
</clipPath>
</defs>
</svg>
