<svg width="245" height="76" viewBox="0 0 245 76" fill="none" xmlns="http://www.w3.org/2000/svg">
<g clip-path="url(#clip0_299_275)">
<path d="M124.27 51.6703C123.2 53.1003 122.11 54.5203 121.06 55.9703C119.81 57.6903 118.59 59.4403 117.36 61.1703C116.61 62.2203 115.61 62.4703 114.34 62.4503C109.8 62.3703 110.21 62.8503 110.21 58.3503C110.21 53.2303 110.24 48.1203 110.19 43.0003C110.18 41.5703 110.67 41.0003 112.13 41.0203C117.11 41.1103 116.56 40.4403 116.58 45.4303C116.59 47.6003 116.58 49.7603 116.58 52.2303C119.16 48.8003 121.61 45.6603 123.9 42.4104C124.6 41.4204 125.26 40.9303 126.45 41.0303C127.51 41.1103 128.58 41.0903 129.64 41.0303C130.58 40.9803 130.97 41.2903 130.97 42.3003C130.94 48.5903 130.94 54.8803 130.97 61.1703C130.98 62.1703 130.59 62.4903 129.65 62.4403C128.64 62.3804 127.62 62.3503 126.62 62.4403C125.02 62.5903 124.59 61.7303 124.59 60.3603C124.6 57.5103 124.59 54.6503 124.59 51.8003C124.48 51.7503 124.37 51.7103 124.27 51.6703Z" fill="#A4A5A9"/>
<path d="M162.071 50.8404C164.351 51.5804 165.851 54.8304 165.501 56.7604C165.041 59.3004 162.891 61.9304 160.611 62.0804C157.341 62.3004 154.061 62.3704 150.781 62.4104C146.331 62.4604 146.331 62.4204 146.331 57.9904C146.331 52.8704 146.361 47.7504 146.301 42.6304C146.291 41.4204 146.781 41.0404 147.861 41.0404C151.321 41.0504 154.801 40.8204 158.251 41.0804C162.591 41.4104 165.151 46.1304 162.731 49.7004C162.511 50.0404 162.321 50.4204 162.071 50.8404ZM152.461 57.3404C154.281 57.3404 155.921 57.3304 157.561 57.3404C158.661 57.3504 159.331 56.8804 159.461 55.7404C159.611 54.4804 158.681 53.9304 157.791 53.8404C156.031 53.6604 154.241 53.7904 152.471 53.7904C152.461 55.0804 152.461 56.1204 152.461 57.3404ZM152.441 49.1804C154.021 49.0204 155.441 48.9804 156.781 48.6604C157.201 48.5604 157.741 47.6104 157.651 47.1704C157.561 46.7404 156.761 46.2304 156.221 46.1704C154.991 46.0204 153.721 46.1204 152.431 46.1204C152.441 47.1604 152.441 48.0004 152.441 49.1804Z" fill="#A4A5A9"/>
<path d="M217.831 58.8904C215.661 58.8904 213.581 58.9604 211.511 58.8604C210.351 58.8104 209.791 59.3604 209.671 60.3404C209.461 62.0004 208.591 62.5804 206.991 62.4304C205.931 62.3304 204.861 62.4004 203.801 62.4104C202.821 62.4204 202.441 62.1404 202.861 61.0604C204.411 57.0004 205.891 52.9204 207.401 48.8404C208.171 46.7504 208.931 44.6604 209.711 42.5804C210.091 41.5704 210.651 40.9104 211.921 41.0004C213.451 41.1104 215.011 40.9304 216.541 41.0804C217.121 41.1304 217.961 41.6104 218.151 42.1004C220.491 48.1304 222.741 54.1904 224.991 60.2504C225.671 62.0704 225.431 62.3904 223.541 62.4004C223.171 62.4004 222.791 62.4104 222.421 62.4004C218.401 62.3304 219.301 63.1004 217.831 58.8904ZM216.141 53.7804C215.431 51.7004 214.771 49.7904 214.001 47.5504C213.251 49.8704 212.631 51.7904 211.991 53.7804C213.441 53.7804 214.661 53.7804 216.141 53.7804Z" fill="#A4A5A9"/>
<path d="M95.1207 54.6799C95.1207 56.7999 95.0808 58.9299 95.1408 61.0499C95.1708 62.0899 94.8307 62.4299 93.7708 62.4399C89.1108 62.4999 89.1108 62.5299 89.1108 57.9699C89.1108 52.8499 89.1508 47.7399 89.0808 42.6199C89.0608 41.3099 89.4807 40.9999 90.7307 41.0099C95.1107 41.0499 95.1107 41.0099 95.1207 45.4299C95.1207 45.8999 95.1207 46.3799 95.1207 47.3199C96.3107 45.8699 97.4008 44.8299 98.1408 43.5799C99.3308 41.5799 100.901 40.6999 103.211 41.0099C104.101 41.1299 105.021 40.9999 105.921 41.0399C106.921 41.0899 107.311 41.5399 106.621 42.4299C105.371 44.0399 104.111 45.6299 102.821 47.2099C102.161 48.0199 101.431 48.7899 100.761 49.5899C100.181 50.2899 100.251 50.9799 100.831 51.6799C103.261 54.6199 105.691 57.5599 108.081 60.5399C108.361 60.8899 108.531 61.5199 108.431 61.9399C108.371 62.1799 107.661 62.3199 107.231 62.3899C106.761 62.4599 106.251 62.3099 105.801 62.4199C102.341 63.2399 100.451 61.1499 98.7008 58.6999C97.6807 57.2699 96.5508 55.9199 95.4708 54.5399C95.3508 54.5899 95.2307 54.6299 95.1207 54.6799Z" fill="#A4A5A9"/>
<path d="M56.1693 41.3196C53.0793 41.0396 51.5793 39.6496 50.7593 36.4596C50.3493 34.8496 51.9492 31.8596 54.4592 31.0796C60.0392 29.3296 65.5892 27.4596 71.1492 25.6596C75.0492 24.3996 77.6792 25.8096 78.5892 29.7596C79.0692 31.8396 77.4193 34.4696 75.4493 35.1396C69.2793 37.2596 63.0692 39.2296 56.8692 41.2596C56.6292 41.3296 56.3493 41.3096 56.1693 41.3196Z" fill="#A4A5A9"/>
<path d="M0.500023 30.1796C0.490023 26.6296 3.72001 24.3096 7.33001 25.4396C13.21 27.2796 19.07 29.2096 24.91 31.1896C27.52 32.0796 28.8 35.1296 27.91 37.9296C27.2 40.1596 24.3 41.7196 21.8 40.9596C15.66 39.0896 9.55004 37.1196 3.45004 35.1196C1.58004 34.5096 0.500023 32.5096 0.500023 30.1796Z" fill="#A4A5A9"/>
<path d="M34.7093 55.8395C34.1693 56.9095 33.7393 58.0695 33.0493 59.0495C29.9993 63.3895 26.8793 67.6795 23.7893 71.9895C22.6393 73.5995 21.6093 75.2695 19.3193 75.5895C17.2893 75.8795 15.2493 75.1195 13.9893 73.2395C12.9793 71.7395 12.9493 69.4795 14.0693 67.8995C17.7893 62.6295 21.5393 57.3895 25.3093 52.1595C26.2893 50.8095 29.0893 49.8195 30.4193 50.4095C32.5493 51.3595 34.5793 52.5595 34.3093 55.6395C34.4593 55.7095 34.5893 55.7795 34.7093 55.8395Z" fill="#A4A5A9"/>
<path d="M44.3496 55.6299C44.6396 53.0299 46.1696 51.0699 48.6596 50.3499C50.3296 49.8699 52.6196 50.9299 53.9096 52.7099C57.4296 57.5499 61.0096 62.3499 64.4996 67.2199C65.7096 68.9099 66.2396 70.7699 65.1396 72.7899C64.1696 74.5699 62.6696 75.7699 60.6896 75.7799C59.0396 75.7899 57.3896 75.1599 56.3296 73.6799C52.7096 68.5999 49.0996 63.5199 45.5496 58.3899C44.9896 57.5799 44.7396 56.5499 44.3496 55.6299Z" fill="#A4A5A9"/>
<path d="M44.5798 14.77C44.5798 17.91 44.5798 21.05 44.5798 24.2C44.5798 26.68 42.3398 28.96 40.0498 29.19C36.6898 29.52 34.3998 26.63 34.3998 24.36C34.3898 17.86 34.3398 11.37 34.4298 4.86996C34.4598 2.76996 35.9298 1.53996 37.7398 0.669962C39.5598 -0.200038 41.1598 0.309965 42.5898 1.44996C43.9698 2.53996 44.6998 3.93997 44.6198 5.82997C44.4798 8.79997 44.5798 11.79 44.5798 14.77Z" fill="#A4A5A9"/>
<path d="M233.311 40.7695C235.531 41.0595 237.841 41.0695 239.961 41.7095C243.631 42.8195 245.361 46.1495 244.781 49.8095C244.251 53.1795 241.181 55.7395 237.421 55.6895C232.961 55.6295 232.961 55.6195 232.971 60.1195C232.971 62.4095 232.971 62.4095 230.631 62.4095C226.961 62.4095 226.961 62.4095 226.961 58.6395C226.961 53.4095 227.031 48.1895 226.921 42.9595C226.891 41.3395 227.521 40.9495 228.951 41.0195C230.391 41.0895 231.831 41.0395 233.271 41.0395C233.281 40.9495 233.301 40.8595 233.311 40.7695ZM233.031 50.6195C234.391 50.6195 235.601 50.6495 236.811 50.6095C237.971 50.5795 238.611 49.8795 238.801 48.7795C239.011 47.6095 238.461 46.7295 237.391 46.4795C236.001 46.1595 234.551 46.1395 233.031 45.9795C233.031 47.6695 233.031 49.0295 233.031 50.6195Z" fill="#A4A5A9"/>
<path d="M183.179 48.1997C181.299 47.5097 179.749 46.8497 178.139 46.3797C176.299 45.8397 173.599 47.1397 172.549 48.9297C171.529 50.6897 171.759 53.5497 172.909 54.9997C175.379 58.1097 179.199 57.8597 181.619 55.7797C182.329 55.1697 182.979 55.0897 183.619 55.7797C184.369 56.5897 185.009 57.4997 185.809 58.2597C186.649 59.0497 186.089 59.6297 185.579 60.0797C180.979 64.1097 174.069 64.2097 169.879 60.2697C167.849 58.3597 166.469 56.1297 166.199 53.3297C165.599 46.8697 168.749 42.2497 175.049 40.6497C179.159 39.6097 182.749 40.9697 185.849 43.7297C186.509 44.3197 186.219 45.0497 185.679 45.6297C184.799 46.5497 183.899 47.4597 183.179 48.1997Z" fill="#A4A5A9"/>
<path d="M199.1 47.1103C199.1 51.5203 199.05 55.7803 199.12 60.0303C199.16 62.1303 198.66 62.4703 196.8 62.4403C193.08 62.3703 193.08 62.4203 193.08 58.6303C193.08 54.8503 193.08 51.0703 193.08 47.0503C191.47 47.0503 189.95 46.9903 188.43 47.0703C187.38 47.1303 187.01 46.6503 186.97 45.7203C186.97 45.6103 186.97 45.5103 186.97 45.4003C187.01 40.6703 186.37 41.0303 191.13 41.0503C195.18 41.0603 199.23 41.0903 203.27 41.0303C204.41 41.0103 204.86 41.2903 204.86 42.5303C204.86 47.0003 204.91 47.0003 200.4 47.0603C200.05 47.0503 199.68 47.0803 199.1 47.1103Z" fill="#A4A5A9"/>
<path d="M135.149 51.5898C135.149 48.6598 135.179 45.7298 135.139 42.7998C135.119 41.4898 135.679 40.9698 136.949 41.0298C138.069 41.0798 139.189 41.1098 140.299 41.0198C141.649 40.9098 142.149 41.6298 142.149 42.7798C142.179 48.8498 142.199 54.9298 142.099 60.9998C142.089 61.4798 141.219 62.2598 140.649 62.3498C139.409 62.5598 138.099 62.3798 136.829 62.4198C135.599 62.4598 135.119 61.8998 135.139 60.6998C135.169 57.6598 135.149 54.6298 135.149 51.5898Z" fill="#A4A5A9"/>
<path d="M136.981 32.5395C137.481 35.2095 134.701 37.8895 131.581 38.0395C128.921 38.1595 126.281 35.2595 126.201 32.4495C126.121 29.5995 128.811 26.9795 131.831 26.9795C134.911 26.9795 136.971 29.1995 136.981 32.5395Z" fill="#A4A5A9"/>
<path d="M145.53 26.9795C148.85 26.9295 150.9 29.5695 151.06 32.3895C151.22 35.2395 148.22 37.9695 145.24 37.9995C142.9 38.0195 139.91 34.9295 139.98 32.3995C140.05 29.7495 142.43 26.7995 145.53 26.9795Z" fill="#A4A5A9"/>
</g>
<defs>
<clipPath id="clip0_299_275">
<rect width="245" height="76" fill="white"/>
</clipPath>
</defs>
</svg>
