<svg width="237" height="48" viewBox="0 0 237 48" fill="none" xmlns="http://www.w3.org/2000/svg">
<g clip-path="url(#clip0_299_315)">
<path d="M29.0808 47.0796C13.0008 47.9496 1.93078 40.9196 0.800781 24.9896V23.8496C0.950781 24.4196 1.09078 24.9996 1.26078 25.5596C1.48078 26.2596 2.00078 26.6796 2.66078 26.9396C3.77078 27.3696 3.97078 27.6096 3.97078 28.8096C3.98078 29.7496 3.95078 30.6896 3.90078 31.6296C3.82078 32.8896 5.33078 34.0496 6.71078 33.7496C7.15078 33.6596 7.57078 33.4896 8.00078 33.3796C9.29078 33.0496 10.2208 33.8796 10.1208 35.2196C10.0608 35.9096 10.0408 36.6096 10.0408 37.2996C10.0308 39.4496 12.2908 40.7596 13.6608 40.8296C14.2808 40.8596 14.7708 40.5096 15.1408 40.0396C15.4708 39.6196 15.7608 39.1796 16.0608 38.7396C16.4408 38.1896 16.9108 37.7796 17.6308 37.8896C18.3908 38.0096 19.0208 38.3896 19.2708 39.1696C19.4308 39.6896 19.4708 40.2396 19.6008 40.7696C19.7208 41.2596 19.7808 41.8196 20.0508 42.2196C20.7408 43.2296 22.5508 43.1796 23.2508 42.1696C23.4608 41.8596 23.6108 41.4996 23.7508 41.1496C23.9108 40.7696 24.0008 40.3596 24.1808 39.9796C24.5608 39.1696 25.3408 39.0496 25.9508 39.7196C26.1808 39.9696 26.3708 40.2796 26.5208 40.5896C27.0108 41.5796 27.7908 42.0396 28.8908 41.9496C29.2208 41.9196 29.5508 41.8896 29.8708 41.8196C31.3908 41.4996 31.9708 40.7996 32.0408 39.2396C32.0508 38.9096 32.1008 38.5796 32.1708 38.2596C32.3308 37.4996 33.0308 37.0296 33.7808 37.2696C34.3108 37.4396 34.8008 37.7396 35.2708 38.0296C36.2208 38.6296 37.1808 38.6596 38.1408 38.1096C39.5008 37.3296 40.5708 36.2296 41.4208 34.9196C41.9108 34.1596 41.8608 33.4196 41.2908 32.7096C41.2208 32.6196 41.1508 32.5296 41.0808 32.4296C40.8308 32.0696 40.8108 31.6996 41.0308 31.3096C41.2508 30.9096 41.6008 30.7496 42.0308 30.8496C42.6508 30.9896 43.1108 30.7396 43.3308 30.1996C43.7508 29.1596 44.1308 28.0996 44.4408 27.0196C44.5308 26.6996 44.4208 26.2496 44.2508 25.9396C43.7708 25.0496 43.8108 24.4796 44.5408 23.7596C45.0608 23.2496 45.6108 22.7696 46.1308 22.2596C47.3108 21.0896 47.7308 19.7096 47.3008 18.0796C46.7908 16.1796 46.0608 14.3596 45.0608 12.6796C44.0308 10.9296 42.8808 9.24958 41.6908 7.59958C40.9508 6.56958 39.9608 5.81958 38.7808 5.26958C37.8508 4.82958 36.9808 4.20958 36.1808 3.54958C35.2408 2.76958 34.2108 2.24957 33.0508 1.89957C31.7808 1.51957 30.5308 1.07957 29.3008 0.55957C30.4008 0.79957 31.5108 0.979572 32.5908 1.27957C36.7308 2.40957 40.2308 4.61958 43.0608 7.81958C45.9808 11.1196 47.8208 14.9896 48.5208 19.3396C48.7808 20.9696 48.9408 22.6296 48.9108 24.2796C48.8208 28.8696 47.6308 33.1696 45.1208 37.0696C42.9408 40.4496 40.0808 43.0696 36.5008 44.8796C34.1508 46.0396 31.6808 46.7696 29.0808 47.0796C29.3308 47.0796 29.5908 47.0796 29.8408 47.0796H29.0808Z" fill="#A4A5A9"/>
<path d="M74.8809 12.9495C75.1209 12.9295 75.2509 12.8995 75.3809 12.8995C77.2409 12.8995 79.0909 12.8895 80.9509 12.8995C81.5909 12.8995 82.2309 13.0295 82.6509 13.5695C82.9009 13.8795 83.1309 14.2595 83.2109 14.6395C84.3209 19.7195 85.4009 24.7995 86.4809 29.8895C86.5109 30.0095 86.5409 30.1295 86.6509 30.2695C86.7309 29.9795 86.8209 29.6795 86.9009 29.3895C88.2609 24.5095 89.6209 19.6295 90.9809 14.7495C91.3709 13.3595 91.9509 12.9095 93.4009 12.8995C94.3909 12.8995 95.3909 12.8895 96.3809 12.8995C97.7109 12.9195 98.4309 13.4895 98.7609 14.7695C100.091 19.8295 101.421 24.8895 102.751 29.9495C102.771 30.0395 102.811 30.1395 102.931 30.2395C102.991 29.9295 103.041 29.6195 103.111 29.3095C104.271 24.3295 105.431 19.3395 106.601 14.3595C106.791 13.5295 107.461 12.9295 108.351 12.9095C110.301 12.8695 112.261 12.8995 114.211 12.8995C114.261 12.8995 114.301 12.9295 114.411 12.9695C114.381 13.1295 114.361 13.3095 114.311 13.4695C111.781 21.6695 109.251 29.8595 106.731 38.0595C106.611 38.4495 106.431 38.5795 106.031 38.5795C104.241 38.5595 102.451 38.5695 100.661 38.5695C99.6709 38.5695 99.2709 38.2895 98.9609 37.3095C98.7009 36.4695 98.4709 35.6295 98.2309 34.7795C97.0409 30.5895 95.8609 26.3995 94.6809 22.2095C94.6209 21.9895 94.5709 21.7695 94.5409 21.6395C93.1109 26.6495 91.6609 31.7295 90.2009 36.7995C90.1009 37.1495 89.9609 37.4895 89.7909 37.7995C89.5409 38.2295 89.1409 38.4595 88.6409 38.4695C86.8009 38.4795 84.9609 38.4695 83.1209 38.4795C82.7609 38.4795 82.6809 38.2595 82.6009 37.9895C81.9509 35.8995 81.3109 33.8095 80.6609 31.7295C78.8309 25.8095 77.0009 19.8995 75.1709 13.9795C75.0809 13.6695 74.9909 13.3395 74.8809 12.9495Z" fill="#A4A5A9"/>
<path d="M147.851 26.6591C148.011 29.8091 149.811 32.4191 153.071 32.6191C154.781 32.7191 156.301 32.3091 157.801 31.5591C158.551 31.1791 159.321 30.8291 160.121 30.5891C160.831 30.3691 161.451 30.6591 161.921 31.2491C162.541 32.0291 163.141 32.8191 163.781 33.5791C164.031 33.8691 164.001 34.0691 163.751 34.3391C162.481 35.7291 160.931 36.7091 159.181 37.3391C155.551 38.6391 151.851 38.8291 148.181 37.5491C145.141 36.4891 142.931 34.3991 141.621 31.4691C139.621 27.0291 139.521 22.5391 141.721 18.1391C142.931 15.7291 144.921 14.0291 147.381 12.9891C148.441 12.5391 149.651 12.4191 150.811 12.2491C153.181 11.9191 155.521 12.1591 157.731 13.0791C161.071 14.4691 162.911 17.1291 163.771 20.5391C164.141 21.9991 164.151 23.4991 164.071 24.9891C164.001 26.2091 163.491 26.6491 162.251 26.6491C157.661 26.6491 153.071 26.6491 148.481 26.6491C148.271 26.6591 148.061 26.6591 147.851 26.6591ZM147.961 22.2091C148.081 22.2291 148.211 22.2591 148.331 22.2591C151.111 22.2591 153.901 22.2591 156.681 22.2691C157.131 22.2691 157.201 22.0591 157.171 21.6791C156.971 19.0991 155.161 17.3891 152.571 17.4991C150.031 17.6091 147.941 19.6691 147.961 22.2091Z" fill="#A4A5A9"/>
<path d="M121.331 26.6597C121.411 29.5797 123.121 32.3397 126.361 32.5997C128.131 32.7397 129.731 32.3297 131.281 31.5397C132.041 31.1497 132.841 30.8097 133.651 30.5697C134.271 30.3797 134.871 30.6297 135.301 31.1497C135.991 31.9797 136.651 32.8297 137.351 33.6497C137.621 33.9597 137.451 34.1397 137.241 34.3597C135.291 36.4297 132.861 37.5997 130.101 38.0697C127.891 38.4497 125.661 38.5197 123.441 38.0397C118.271 36.9197 115.031 32.9097 114.151 28.2697C113.541 25.0497 113.601 21.8397 115.051 18.8297C116.821 15.1497 119.691 12.8297 123.851 12.2797C125.761 12.0297 127.651 12.0597 129.521 12.5397C133.841 13.6497 136.281 16.5497 137.231 20.7997C137.551 22.2297 137.661 23.6797 137.451 25.1397C137.281 26.2997 136.861 26.6397 135.691 26.6397C131.121 26.6397 126.551 26.6397 121.971 26.6397C121.751 26.6597 121.541 26.6597 121.331 26.6597ZM125.971 22.2597C127.311 22.2597 128.651 22.2497 129.991 22.2697C130.421 22.2797 130.581 22.1297 130.551 21.6897C130.431 19.9097 129.671 18.4797 127.981 17.8297C126.281 17.1797 124.581 17.3697 123.111 18.5397C122.131 19.3197 121.691 20.4297 121.411 21.6097C121.271 22.1997 121.311 22.2497 121.901 22.2497C123.251 22.2597 124.611 22.2597 125.971 22.2597Z" fill="#A4A5A9"/>
<path d="M236.63 12.9596C236.56 13.1896 236.51 13.3596 236.45 13.5196C233.36 21.6596 230.27 29.8096 227.2 37.9596C227.03 38.4096 226.82 38.5996 226.31 38.5896C224.37 38.5596 222.43 38.5696 220.5 38.5796C220.14 38.5796 219.93 38.4796 219.8 38.1196C216.63 29.8596 213.46 21.6096 210.28 13.3596C210.23 13.2396 210.21 13.1096 210.16 12.9196C210.38 12.9096 210.55 12.8796 210.72 12.8796C212.56 12.8796 214.4 12.8696 216.24 12.8796C217.66 12.8796 218.36 13.4296 218.77 14.7896C220.11 19.2096 221.46 23.6296 222.79 28.0496C223.05 28.9296 223.24 29.8296 223.5 30.8596C223.63 30.2996 223.71 29.8796 223.84 29.4696C224.79 26.3196 225.75 23.1596 226.71 20.0196C227.28 18.1496 227.88 16.2896 228.48 14.4296C228.79 13.4696 229.46 12.9096 230.45 12.8896C232.4 12.8596 234.36 12.8796 236.31 12.8796C236.39 12.8996 236.47 12.9296 236.63 12.9596Z" fill="#A4A5A9"/>
<path d="M64.4607 38.8698C61.7407 38.8098 59.2007 38.1598 56.8307 36.8398C56.3707 36.5798 55.9707 36.2298 55.5307 35.9298C55.3107 35.7698 55.2507 35.5998 55.4107 35.3398C55.9707 34.4598 56.4907 33.5498 57.0707 32.6898C57.7507 31.6698 59.1107 31.4298 60.2607 32.0498C61.0307 32.4598 61.8107 32.8898 62.6207 33.1998C63.9607 33.6998 65.3507 33.7498 66.6907 33.1598C67.7307 32.6998 68.1407 31.7298 67.7607 30.6998C67.5307 30.0598 67.0107 29.6798 66.4207 29.4398C65.4807 29.0698 64.5107 28.7898 63.5607 28.4398C62.3507 27.9898 61.1107 27.5998 59.9507 27.0298C57.5107 25.8198 56.2907 23.7698 56.1507 21.0598C55.9407 17.1298 58.2307 14.0298 61.9707 12.9398C65.8407 11.8198 69.5707 12.1698 73.0807 14.2498C73.6307 14.5798 74.1207 15.0198 74.6307 15.4098C74.9007 15.6198 74.9207 15.8398 74.7107 16.1298C74.2207 16.7998 73.7607 17.4898 73.2807 18.1598C72.6507 19.0298 71.9807 19.2598 70.9407 18.9098C70.3907 18.7298 69.8607 18.4798 69.3307 18.2598C67.9607 17.6898 66.5507 17.4998 65.1007 17.7998C64.7807 17.8698 64.4607 17.9998 64.1907 18.1698C63.1407 18.8098 63.0907 20.3398 64.0807 21.0698C65.0807 21.7998 66.2407 22.1298 67.3807 22.5398C68.7607 23.0398 70.1707 23.4998 71.4907 24.1498C74.2007 25.4798 75.4307 28.0598 75.0507 31.0598C74.5307 35.1298 71.7707 37.5998 67.7507 38.4698C66.6707 38.6998 65.5607 38.7398 64.4607 38.8698Z" fill="#A4A5A9"/>
<path d="M166.661 20.5996C166.661 17.2396 166.661 13.8796 166.661 10.5096C166.661 10.1196 166.681 9.70962 166.781 9.32962C167.031 8.35962 167.901 7.70962 168.911 7.70962C170.601 7.70962 172.291 7.72961 173.981 7.69961C174.501 7.68961 174.631 7.86961 174.621 8.35961C174.601 10.0696 174.631 11.7696 174.601 13.4796C174.591 13.9496 174.731 14.1096 175.221 14.1096C176.711 14.0796 178.201 14.1096 179.691 14.0896C180.111 14.0796 180.281 14.2196 180.281 14.6596C180.261 16.2196 180.261 17.7696 180.281 19.3296C180.291 19.7996 180.101 19.9196 179.661 19.9096C178.171 19.8896 176.681 19.9096 175.191 19.8896C174.771 19.8796 174.601 19.9896 174.611 20.4396C174.631 23.9296 174.611 27.4296 174.621 30.9196C174.621 32.0996 175.281 32.4996 176.351 32.0096C176.591 31.8996 176.831 31.7596 177.081 31.6996C177.671 31.5696 178.171 31.7596 178.511 32.2696C179.321 33.4796 180.111 34.7096 180.921 35.9196C181.101 36.1896 180.981 36.3396 180.771 36.4896C179.241 37.5796 177.561 38.3196 175.691 38.4596C174.481 38.5496 173.231 38.5696 172.041 38.3696C169.211 37.8996 167.261 35.7996 166.841 32.9496C166.731 32.1796 166.681 31.3996 166.671 30.6296C166.651 27.2896 166.661 23.9396 166.661 20.5996Z" fill="#A4A5A9"/>
<path d="M195.862 20.8797C195.862 17.3197 195.862 13.7597 195.862 10.1997C195.862 8.59971 196.762 7.70972 198.352 7.70972C199.962 7.70972 201.562 7.71971 203.172 7.69971C203.622 7.68971 203.782 7.82971 203.772 8.28971C203.752 10.0497 203.772 11.7997 203.752 13.5597C203.752 13.9697 203.882 14.1097 204.292 14.0997C205.782 14.0797 207.272 14.0897 208.762 14.0897C209.412 14.0897 209.422 14.0997 209.422 14.7597C209.422 16.2797 209.412 17.8097 209.432 19.3297C209.442 19.7697 209.282 19.8997 208.852 19.8997C207.342 19.8797 205.842 19.8997 204.332 19.8797C203.922 19.8697 203.752 19.9697 203.752 20.4297C203.772 23.8397 203.752 27.2497 203.762 30.6697C203.762 32.1597 204.412 32.5497 205.742 31.9097C206.652 31.4697 207.272 31.6297 207.822 32.4697C208.552 33.5797 209.262 34.6897 210.002 35.7897C210.232 36.1297 210.172 36.3297 209.852 36.5597C207.122 38.4397 204.112 39.0397 200.902 38.3197C198.002 37.6697 196.392 35.6197 195.952 32.5997C195.862 31.9597 195.852 31.3097 195.852 30.6697C195.862 27.4097 195.862 24.1397 195.862 20.8797Z" fill="#A4A5A9"/>
<path d="M16.5103 22.0792C16.5103 19.4792 16.5103 16.8792 16.5103 14.2792C16.5103 14.1092 16.5003 13.9492 16.5203 13.7792C16.6503 12.2192 17.7503 11.5592 19.1303 12.2792C24.4903 15.0792 29.8403 17.8792 35.1803 20.6992C36.4803 21.3892 36.5103 22.5992 35.2203 23.3392C33.1403 24.5392 31.0303 25.6792 28.9203 26.8392C25.7603 28.5792 22.6003 30.3192 19.4403 32.0692C19.3103 32.1392 19.1803 32.2192 19.0403 32.2792C17.9103 32.7992 16.9203 32.2892 16.7003 31.0692C16.6403 30.7092 16.6103 30.3492 16.6103 29.9792C16.6003 27.3492 16.6103 24.7092 16.6103 22.0792C16.5803 22.0792 16.5403 22.0792 16.5103 22.0792Z" fill="#A4A5A9"/>
<path d="M190.841 34.2099C190.831 36.6699 188.891 38.5998 186.451 38.5898C183.981 38.5798 182.031 36.6399 182.041 34.2199C182.051 31.8298 184.021 29.9298 186.471 29.9298C188.891 29.9098 190.851 31.8399 190.841 34.2099Z" fill="#A4A5A9"/>
<path d="M32.6012 6.11914C32.7712 6.27914 32.9912 6.39915 33.0612 6.56915C33.4012 7.44915 33.7012 8.33914 33.9912 9.22914C34.1212 9.62914 34.0112 9.93914 33.5712 10.0891C33.4312 10.1391 33.2912 10.1891 33.1612 10.2591C32.7512 10.4791 32.4712 10.2891 32.3312 9.92914C31.9912 9.01914 31.6712 8.09914 31.3812 7.16914C31.3312 7.00914 31.4212 6.70914 31.5512 6.61914C31.8412 6.41914 32.2012 6.30914 32.6012 6.11914Z" fill="#A4A5A9"/>
<path d="M12.0812 22.4596C11.7912 22.7696 11.5512 23.0796 11.2612 23.3196C10.9812 23.5396 10.7212 23.4096 10.4712 23.1896C9.82118 22.6196 9.16118 22.0696 8.51118 21.5096C8.05118 21.1096 8.06118 20.8696 8.51118 20.3396C8.99118 19.7796 9.17118 19.7496 9.65118 20.1496C10.3012 20.6896 10.9412 21.2396 11.5712 21.7996C11.7412 21.9596 11.8612 22.1796 12.0812 22.4596Z" fill="#A4A5A9"/>
<path d="M21.1914 5.04933C21.3714 4.87933 21.5214 4.60933 21.7414 4.54933C22.5714 4.31933 23.4114 4.12933 24.2514 3.96933C24.7914 3.86933 24.9514 4.01933 25.0614 4.56933C25.2214 5.36933 25.1414 5.61932 24.5914 5.75932C23.8514 5.94932 23.1114 6.10933 22.3714 6.26933C21.6614 6.41933 21.5014 6.30932 21.3514 5.58932C21.3214 5.43932 21.3014 5.29932 21.2714 5.14932C21.2414 5.10932 21.2114 5.07933 21.1914 5.04933Z" fill="#A4A5A9"/>
<path d="M23.3001 33.4797C23.3701 33.5597 23.6101 33.6897 23.6701 33.8797C23.9501 34.7797 24.1801 35.6897 24.4101 36.5997C24.5001 36.9297 24.3701 37.1797 24.0301 37.2997C24.0101 37.3097 24.0001 37.3097 23.9801 37.3197C22.9401 37.7097 22.8301 37.6497 22.5701 36.5797C22.4201 35.9497 22.2701 35.3297 22.1201 34.6997C21.9301 33.8597 22.2501 33.4697 23.3001 33.4797Z" fill="#A4A5A9"/>
<path d="M38.6302 28.4996C39.0802 28.4996 39.5202 28.4996 39.9702 28.4996C40.3802 28.4996 40.5802 28.7096 40.5902 29.1096C40.5902 29.3096 40.6102 29.5096 40.5802 29.7096C40.5302 30.0696 40.3302 30.3296 39.9302 30.3296C39.0502 30.3396 38.1702 30.3396 37.3002 30.3296C36.9002 30.3296 36.6902 30.1196 36.6802 29.7096C36.6702 29.5296 36.6802 29.3496 36.6802 29.1596C36.6802 28.7196 36.8902 28.4796 37.3502 28.4896C37.7702 28.4996 38.2002 28.4996 38.6302 28.4996Z" fill="#A4A5A9"/>
<path d="M15.0115 35.3594C14.8815 35.4994 14.7415 35.7094 14.5415 35.8394C14.3815 35.9494 14.1615 35.9594 13.9815 36.0294C13.6115 36.1694 13.3815 35.9994 13.2815 35.6794C13.0115 34.7394 12.7515 33.7994 12.5315 32.8494C12.4215 32.3794 12.6915 32.1394 13.4015 31.9994C13.9015 31.8994 14.1215 32.0194 14.2515 32.4994C14.5015 33.4094 14.7415 34.3194 15.0115 35.3594Z" fill="#A4A5A9"/>
<path d="M11.8301 10.75C11.8601 10.68 11.9001 10.54 11.9701 10.41C12.4001 9.65 12.8401 8.89001 13.2801 8.13001C13.4901 7.77001 13.7601 7.60001 14.1801 7.85001C14.9101 8.28001 15.0401 8.48 14.7601 8.98C14.3201 9.78 13.8701 10.57 13.3801 11.34C13.2601 11.53 12.9301 11.73 12.7301 11.7C12.2801 11.65 11.8301 11.14 11.8301 10.75Z" fill="#A4A5A9"/>
<path d="M42.6917 18.6995C42.6217 18.8395 42.5517 19.0095 42.4717 19.1695C42.0517 19.9195 41.6017 20.6595 41.1917 21.4095C41.0017 21.7495 40.7617 21.7995 40.4517 21.6395C40.2417 21.5395 40.0617 21.3895 39.8717 21.2595C39.5917 21.0695 39.5417 20.8095 39.7017 20.5195C40.1717 19.6995 40.6417 18.8895 41.1217 18.0795C41.2817 17.8195 41.5217 17.6195 41.8217 17.7995C42.1717 18.0095 42.6417 18.1395 42.6917 18.6995Z" fill="#A4A5A9"/>
<path d="M38.6906 13.3494C38.6406 13.4594 38.6006 13.5694 38.5506 13.6694C38.1406 14.4094 37.7306 15.1394 37.3106 15.8694C37.0106 16.3994 36.7706 16.4894 36.3706 16.2594C35.6506 15.8494 35.5206 15.5894 35.8406 15.0294C36.2606 14.2594 36.7106 13.5094 37.1506 12.7494C37.3006 12.4894 37.5506 12.2894 37.8506 12.4694C38.1906 12.6794 38.6706 12.7994 38.6906 13.3494Z" fill="#A4A5A9"/>
<path d="M6.55078 14.9096C6.79078 14.5096 6.97078 14.1396 7.23078 13.8296C7.31078 13.7396 7.62078 13.7497 7.77078 13.8197C8.54078 14.1897 9.30078 14.5896 10.0608 14.9896C10.4208 15.1796 10.5508 15.4596 10.3408 15.8496C10.2408 16.0196 10.1708 16.2096 10.0608 16.3796C9.89078 16.6596 9.65078 16.7396 9.34078 16.5896C8.57078 16.1996 7.80078 15.8296 7.04078 15.4196C6.86078 15.3296 6.74078 15.1196 6.55078 14.9096Z" fill="#A4A5A9"/>
<path d="M9.16992 27.9193C9.24992 27.8293 9.34992 27.5993 9.52992 27.4993C10.3299 27.0393 11.1499 26.6093 11.9599 26.1693C12.2699 25.9993 12.4899 26.0993 12.6799 26.3793C13.1899 27.1193 13.1099 27.4493 12.3299 27.8793C11.7299 28.1993 11.1399 28.5193 10.5399 28.8393C9.74992 29.2593 9.19992 28.9493 9.16992 27.9193Z" fill="#A4A5A9"/>
<path d="M29.1415 10.3495C29.1215 11.4395 28.7715 11.7095 27.8915 11.4795C27.1715 11.2895 26.4615 11.0995 25.7415 10.8895C25.2415 10.7495 25.1315 10.5595 25.2515 10.0495C25.4315 9.30954 25.6015 9.12954 26.1215 9.25954C26.9915 9.46954 27.8515 9.69955 28.7015 9.95955C28.9115 10.0295 29.0615 10.2695 29.1415 10.3495Z" fill="#A4A5A9"/>
<path d="M32.2607 31.6298C32.1507 31.8798 32.1007 31.9998 32.0407 32.1198C31.5907 32.9098 31.1207 33.6898 30.6807 34.4898C30.4607 34.8798 30.2207 34.9498 29.8407 34.6998C29.0807 34.1998 29.0207 34.0398 29.4707 33.2698C29.8507 32.6098 30.2307 31.9498 30.6207 31.2998C30.7807 31.0398 31.0207 30.7898 31.3607 30.9798C31.6907 31.1498 31.9707 31.4098 32.2607 31.6298Z" fill="#A4A5A9"/>
</g>
<defs>
<clipPath id="clip0_299_315">
<rect width="237" height="48" fill="white"/>
</clipPath>
</defs>
</svg>
