<svg width="222" height="60" viewBox="0 0 222 60" fill="none" xmlns="http://www.w3.org/2000/svg">
<g clip-path="url(#clip0_299_292)">
<path d="M221.79 28.2797C221.79 29.4297 221.79 30.5897 221.79 31.7397C221.73 31.9697 221.63 32.2097 221.61 32.4397C221 39.5197 218.23 45.6297 213.3 50.6997C208.3 55.8497 202.2 58.8697 195.03 59.5397C192.55 59.7697 190.04 59.7297 187.55 59.7297C125.67 59.7397 63.79 59.7397 1.91003 59.7397C0.770027 59.7397 0.770073 59.7397 0.770073 58.5697C0.770073 49.6197 0.760083 40.6697 0.780083 31.7197C0.780083 30.1897 0.810046 28.6497 0.930046 27.1197C1.38005 21.7697 3.20007 16.8897 6.39007 12.5997C12.5001 4.3897 20.7601 0.249701 31.0001 0.239701C84.4501 0.219701 137.9 0.219697 191.35 0.259697C193.61 0.259697 195.91 0.479701 198.13 0.899701C209.78 3.1197 219.43 13.1997 221.28 24.9597C221.45 26.0697 221.62 27.1797 221.79 28.2797ZM79.6401 25.6497C79.7401 25.7197 79.84 25.7797 79.93 25.8497C79.93 26.2297 79.93 26.6097 79.93 26.9997C79.93 32.0797 79.94 37.1597 79.92 42.2297C79.92 42.9097 80.1401 43.1597 80.8201 43.1297C81.8301 43.0897 82.8501 43.1197 83.87 43.1197C85.04 43.1197 85.04 43.1197 85.04 41.9297C85.04 34.8497 85.04 27.7697 85.04 20.6897C85.04 20.3597 85.02 20.0297 84.98 19.7097C84.81 18.3297 83.9201 17.4997 82.5201 17.3997C81.1201 17.2997 80.0601 17.9597 79.12 18.9297C74.76 23.4097 70.3801 27.8797 66.0101 32.3597C65.2401 33.1497 64.5101 33.9897 63.7601 34.8097C63.6701 34.7497 63.5901 34.6797 63.5001 34.6197C63.5001 34.3197 63.5001 34.0297 63.5001 33.7297C63.5001 28.5997 63.4801 23.4697 63.5101 18.3297C63.5101 17.5597 63.2701 17.3197 62.5201 17.3697C61.5401 17.4297 60.5401 17.3797 59.5601 17.3797C58.4001 17.3797 58.3901 17.3797 58.3901 18.5597C58.3901 25.8897 58.3901 33.2197 58.3901 40.5397C58.3901 40.7897 58.4 41.0297 58.42 41.2797C58.53 42.4597 59.2401 43.1897 60.2801 43.5697C61.2701 43.9297 62.12 43.6097 62.87 42.8397C67.9 37.6997 72.95 32.5897 77.99 27.4597C78.58 26.8797 79.1001 26.2497 79.6401 25.6497ZM49.5101 38.6297C49.5101 38.1897 49.5101 37.8897 49.5101 37.5997C49.5101 31.1997 49.4901 24.8097 49.5301 18.4097C49.5301 17.5497 49.2601 17.3097 48.4501 17.3597C47.4101 17.4197 46.3601 17.4197 45.3201 17.3597C44.5701 17.3097 44.3801 17.5897 44.3801 18.2997C44.4101 21.3997 44.3901 24.4997 44.3901 27.6097C44.3901 30.9297 44.37 34.2497 44.41 37.5797C44.42 38.3597 44.2701 38.7497 43.3801 38.6597C42.5101 38.5697 41.6201 38.6397 40.7501 38.6397C37.1801 38.6397 33.61 38.6297 30.04 38.6497C29.39 38.6597 29.14 38.4497 29.17 37.8097C29.19 37.2397 29.1501 36.6597 29.1501 36.0797C29.1501 30.1197 29.14 24.1697 29.17 18.2097C29.17 17.5597 29 17.3397 28.35 17.3697C27.31 17.4197 26.26 17.3797 25.22 17.3897C24.11 17.3897 24.1 17.3897 24.1 18.5297C24.1 25.4797 24.1601 32.4197 24.0701 39.3697C24.0301 42.4597 25.3201 43.1897 27.8901 43.1597C34.6201 43.0897 41.3401 43.1297 48.0701 43.1297C49.2201 43.1297 49.22 43.1297 49.23 44.3197C49.23 44.9797 49.2101 45.6397 49.2701 46.2897C49.2901 46.4897 49.5501 46.8197 49.7001 46.8197C51.1101 46.8597 52.5301 46.8397 54.0201 46.8397C54.0201 44.8897 54.0301 43.0797 54.0201 41.2797C54.0101 39.6797 53.0101 38.6797 51.3901 38.6397C50.7901 38.6197 50.2201 38.6297 49.5101 38.6297ZM119.14 31.0897C119.14 34.7897 119.16 38.4997 119.12 42.1997C119.11 42.9397 119.36 43.1597 120.07 43.1297C121.17 43.0897 122.27 43.0897 123.36 43.1297C124.04 43.1497 124.27 42.9097 124.26 42.2197C124.23 40.1397 124.28 38.0497 124.24 35.9697C124.22 35.1997 124.44 34.9197 125.25 34.9397C127.77 34.9897 130.3 34.9897 132.82 34.9397C133.99 34.9097 135.18 34.8297 136.32 34.5697C141.46 33.3897 144.34 28.5597 142.93 23.6097C141.94 20.1497 138.37 17.5097 134.29 17.3997C130.23 17.2897 126.17 17.2997 122.11 17.3197C120.01 17.3297 119.14 18.2897 119.14 20.3997C119.14 23.9497 119.14 27.5197 119.14 31.0897ZM191.2 34.7097C190.96 35.0697 190.8 35.2897 190.65 35.5097C187.57 39.9197 181.45 40.4097 177.84 36.4497C175.62 34.0097 175.11 31.0697 175.84 27.9197C176.56 24.7897 178.46 22.6097 181.56 21.6997C184.33 20.8897 186.93 21.3997 189.2 23.2997C189.41 23.4797 189.87 23.6797 190 23.5797C191.22 22.6697 192.38 21.6897 193.72 20.5997C193.31 20.2697 193.03 20.0597 192.75 19.8297C188.29 16.1397 183.31 15.5897 178.11 17.8097C173.21 19.8997 170.3 25.0297 170.44 30.3997C170.54 34.2297 171.75 37.5597 174.53 40.2197C178.05 43.5897 182.31 44.4097 186.96 43.5297C190.17 42.9197 192.71 41.1697 194.65 38.5597C194.81 38.3397 194.92 37.7897 194.79 37.6797C193.66 36.6797 192.46 35.7297 191.2 34.7097ZM145.19 17.3897C145.9 18.6297 146.48 19.6397 147.08 20.6497C150.02 25.6297 152.96 30.6197 155.92 35.5897C156.24 36.1297 156.23 36.5297 155.85 36.9997C154.41 38.7697 152.52 39.3197 150.34 39.0297C149.51 38.9197 148.69 38.6797 147.72 38.4697C147.72 39.8897 147.7 41.2697 147.74 42.6597C147.74 42.8197 148.03 43.0697 148.22 43.1197C151.03 43.8597 153.8 44.0297 156.43 42.4797C158.68 41.1597 160.07 39.0897 161.2 36.8397C164.31 30.6097 167.37 24.3497 170.45 18.0997C170.55 17.8997 170.59 17.6697 170.69 17.3297C169.11 17.3297 167.66 17.3697 166.21 17.3097C165.55 17.2797 165.24 17.5197 164.98 18.0997C163.42 21.5197 161.83 24.9197 160.25 28.3297C159.84 29.2097 159.41 30.0697 158.95 31.0397C158.73 30.6897 158.57 30.4697 158.43 30.2397C156.05 26.1697 153.67 22.0997 151.27 18.0297C151.12 17.7697 150.83 17.4097 150.6 17.3997C148.87 17.3697 147.15 17.3897 145.19 17.3897ZM102.2 17.3997C98.1401 17.3997 94.0801 17.4097 90.0201 17.3897C89.3901 17.3897 89.13 17.5797 89.16 18.2297C89.2 19.1097 89.2101 19.9897 89.1501 20.8597C89.1001 21.6397 89.37 21.9097 90.17 21.8997C92.89 21.8597 95.6001 21.8697 98.3201 21.8897C99.6201 21.8897 99.5301 21.7097 99.5301 23.1497C99.5301 29.4897 99.5401 35.8197 99.5101 42.1597C99.5101 42.9397 99.7601 43.1597 100.5 43.1297C101.57 43.0797 102.64 43.0697 103.71 43.1297C104.47 43.1697 104.61 42.8797 104.6 42.1797C104.57 35.7297 104.59 29.2897 104.56 22.8397C104.56 22.0797 104.79 21.8597 105.54 21.8797C108.42 21.9197 111.3 21.8797 114.18 21.9097C114.79 21.9197 115.01 21.6997 114.99 21.0997C114.96 20.1997 114.94 19.2897 115 18.3897C115.05 17.6397 114.8 17.3897 114.03 17.3997C110.1 17.4097 106.15 17.3997 102.2 17.3997Z" fill="#A4A5A9"/>
<path d="M128.96 21.8898C130.66 21.8898 132.37 21.7498 134.05 21.9198C136.89 22.2098 138.31 23.9798 138.09 26.6898C137.97 28.2298 136.86 29.5898 135.16 30.0698C134.25 30.3298 133.28 30.4798 132.33 30.5098C129.89 30.5698 127.45 30.5198 125.01 30.5498C124.44 30.5598 124.24 30.3798 124.24 29.8098C124.26 27.3698 124.26 24.9298 124.24 22.4898C124.24 21.9398 124.43 21.7198 125.01 21.7298C126.32 21.7698 127.64 21.7398 128.96 21.7398C128.96 21.7998 128.96 21.8398 128.96 21.8898Z" fill="#A4A5A9"/>
</g>
<defs>
<clipPath id="clip0_299_292">
<rect width="222" height="60" fill="white"/>
</clipPath>
</defs>
</svg>
