<svg width="154" height="77" viewBox="0 0 154 77" fill="none" xmlns="http://www.w3.org/2000/svg">
<g clip-path="url(#clip0_299_297)">
<path d="M136.891 66.6302C136.471 67.2002 136.081 67.7902 135.621 68.3302C133.401 70.9902 130.651 72.9602 127.541 74.4502C125.021 75.6602 122.381 76.4702 119.591 76.6202C117.761 76.7202 115.911 76.6402 114.091 76.4802C111.621 76.2702 109.241 75.6202 106.971 74.6102C103.571 73.1002 100.741 70.8902 98.761 67.7002C97.351 65.4202 96.631 62.9402 96.511 60.2602C96.361 57.1802 96.8909 54.2402 98.2209 51.4602C99.9309 47.8802 102.641 45.2502 106.111 43.3602C108.711 41.9502 111.511 41.1602 114.381 40.5902C116.941 40.0802 119.521 39.7302 122.131 39.6502C124.551 39.5802 126.971 39.5102 129.391 39.6002C131.651 39.6902 133.901 39.9802 136.151 40.2102C136.511 40.2502 136.601 40.1702 136.571 39.8102C136.331 36.3802 134.601 33.9102 131.671 32.2202C129.951 31.2302 128.051 30.8002 126.091 30.6002C122.671 30.2402 119.291 30.4902 115.951 31.2502C112.971 31.9302 110.151 33.0102 107.511 34.5702C107.311 34.6902 107.061 34.7302 106.831 34.8102C106.891 34.5902 106.911 34.3502 107.001 34.1402C108.921 29.7002 110.851 25.2502 112.791 20.8202C112.861 20.6502 113.061 20.4802 113.241 20.4302C115.991 19.6102 118.811 19.1202 121.661 18.8002C123.961 18.5402 126.261 18.4602 128.571 18.5502C133.251 18.7202 137.761 19.6002 141.941 21.8302C145.341 23.6502 148.291 26.0002 150.401 29.2902C151.991 31.7602 152.891 34.4902 153.381 37.3702C153.821 39.9502 153.831 42.5602 153.821 45.1702C153.801 49.4602 153.801 53.7502 153.781 58.0402C153.761 63.5802 153.731 69.1202 153.701 74.6702C153.701 75.2002 153.681 75.2102 153.141 75.2102C148.001 75.2102 142.851 75.2102 137.711 75.2302C137.281 75.2302 137.091 75.1202 137.091 74.6702C137.081 73.2702 137.051 71.8802 137.041 70.4802C137.031 69.2002 137.041 67.9202 137.041 66.6402C136.991 66.6502 136.941 66.6402 136.891 66.6302ZM128.781 49.4502C127.561 49.5302 126.341 49.5802 125.121 49.6802C122.921 49.8702 120.771 50.2802 118.731 51.1302C116.911 51.9002 115.271 52.9202 114.091 54.5702C112.031 57.4302 113.051 61.0002 116.301 62.3302C118.081 63.0602 119.941 63.2002 121.841 63.0202C126.041 62.6202 129.681 61.0302 132.571 57.9002C134.411 55.9102 135.611 53.5802 136.161 50.9202C136.281 50.3602 136.261 50.3302 135.691 50.2002C133.411 49.6902 131.111 49.5002 128.781 49.4502Z" fill="#A4A5A9"/>
<path d="M19.3204 52.9706C19.4104 54.0806 19.6903 55.0704 20.1103 56.0005C21.6203 59.3806 24.2103 61.6304 27.6203 62.9604C31.5803 64.5005 35.6303 64.5205 39.7203 63.5406C43.9703 62.5205 47.7404 60.5604 51.0204 57.6704C51.6104 57.1504 52.1503 56.5905 52.7203 56.0505C52.8303 55.9506 52.9503 55.8505 53.1203 55.7005C53.4503 56.3004 53.7603 56.8405 54.0503 57.3904C55.7203 60.6004 57.1904 63.9105 58.5204 67.2805C58.6504 67.6005 58.5604 67.8005 58.3304 68.0305C56.4004 69.8805 54.1903 71.3306 51.8003 72.5006C47.2703 74.7206 42.4604 75.9604 37.4604 76.4505C35.7604 76.6204 34.0503 76.7506 32.3503 76.7506C25.1603 76.7506 18.4203 75.1005 12.4403 70.9605C8.03035 67.9005 4.76034 63.9104 2.74034 58.9204C1.09034 54.8404 0.540332 50.6005 0.860332 46.2305C1.18033 41.9605 2.35034 37.9405 4.49034 34.2305C6.97034 29.9305 10.4003 26.5505 14.6003 23.9405C19.1303 21.1305 24.0703 19.4804 29.3503 18.8404C34.5703 18.2104 39.7303 18.4804 44.7903 20.0304C48.3503 21.1204 51.6404 22.7404 54.2704 25.4304C59.5704 30.8604 60.1904 39.0306 55.8304 45.0005C54.0104 47.5005 51.5404 49.1705 48.7604 50.4305C45.4904 51.9104 42.0303 52.7104 38.4803 53.2005C34.9403 53.6905 31.3804 53.8304 27.8204 53.6704C25.1504 53.5504 22.4904 53.2406 19.8204 53.0106C19.6704 52.9906 19.5304 52.9804 19.3204 52.9706ZM26.6203 43.5106C27.9403 43.4206 29.2604 43.3704 30.5804 43.2404C32.6704 43.0404 34.7203 42.6305 36.6703 41.8005C38.5803 40.9905 40.2603 39.8905 41.4303 38.1205C42.9703 35.7805 42.4803 32.9004 40.2203 31.3104C38.8603 30.3504 37.2803 30.0205 35.6603 29.9405C33.3803 29.8205 31.1603 30.1705 29.0403 30.9805C23.8303 32.9705 20.5004 36.6304 19.2104 42.1004C19.1204 42.4904 19.2103 42.6504 19.6203 42.7505C21.9203 43.2505 24.2603 43.4706 26.6203 43.5106Z" fill="#A4A5A9"/>
<path d="M75.4498 57.7099C75.5798 57.4099 75.6998 57.1199 75.8298 56.8199C78.3198 50.7799 80.8098 44.7299 83.2998 38.6899C85.7798 32.6699 88.2597 26.6499 90.7297 20.6299C90.8697 20.2899 91.0598 20.1699 91.4298 20.1699C96.8898 20.1799 102.34 20.1799 107.8 20.1799C107.95 20.1799 108.1 20.1899 108.33 20.2099C108.05 20.8599 107.8 21.4399 107.55 22.0199C105 27.7899 102.46 33.5699 99.9097 39.3399C97.2097 45.4499 94.4998 51.5599 91.7998 57.6699C89.2798 63.3599 86.7698 69.0599 84.2698 74.7599C84.1098 75.1199 83.9198 75.2699 83.5098 75.2699C77.8798 75.2599 72.2498 75.2599 66.6298 75.2699C66.2498 75.2699 66.0797 75.1499 65.9697 74.7799C64.4197 69.6699 62.4797 64.7199 60.1597 59.9099C58.9697 57.4399 57.6797 55.0299 56.1697 52.7499C55.9897 52.4699 56.0198 52.2799 56.1998 52.0299C57.5498 50.1999 58.7098 48.2599 59.7398 46.2399C61.3298 43.1199 62.5698 39.8599 63.4598 36.4799C63.4998 36.3399 63.5398 36.2099 63.5798 36.0699C63.5898 36.0299 63.6198 35.9999 63.6898 35.8699C68.4698 42.6899 72.4198 49.9099 75.4498 57.7099Z" fill="#A4A5A9"/>
<path d="M47.8812 16.1304C47.0412 16.2004 46.2812 16.2804 45.5112 16.3104C40.6612 16.4904 35.8611 16.0804 31.1711 14.7704C28.0411 13.9004 25.0312 12.7204 22.3812 10.7904C19.4912 8.6804 17.3011 6.0104 16.1811 2.5704C15.6511 0.960401 15.5712 1.2604 17.0812 0.910402C21.9312 -0.209598 26.7512 -0.119598 31.5012 1.4104C34.5312 2.3804 37.2411 3.9804 39.7411 5.9304C42.4411 8.0304 44.7212 10.5204 46.5112 13.4404C46.9612 14.1704 47.3311 14.9404 47.7311 15.6904C47.7811 15.8004 47.8112 15.9304 47.8812 16.1304Z" fill="#A4A5A9"/>
</g>
<defs>
<clipPath id="clip0_299_297">
<rect width="154" height="77" fill="white"/>
</clipPath>
</defs>
</svg>
