<svg width="168" height="173" viewBox="0 0 168 173" fill="none" xmlns="http://www.w3.org/2000/svg">
<g clip-path="url(#clip0_13_522)">
<path d="M15.71 61.3796L3 55.5196L3.95 53.4696L9.22 55.8996L12.15 49.5396L6.88 47.1096L7.83 45.0596L20.54 50.9196L19.59 52.9696L14 50.3896L11.07 56.7496L16.66 59.3296L15.71 61.3796Z" fill="white"/>
<path d="M22.32 47.7598L14.58 34.8498L15.98 33.0298L30.46 37.1498L29.05 38.9898L26.04 38.1198L22.1 43.2598L23.72 45.9398L22.32 47.7698V47.7598ZM24.09 37.5298L17.54 35.6298L17.5 35.6798L21.03 41.5298L24.09 37.5298Z" fill="white"/>
<path d="M32.77 34.4899L24.17 23.4499L25.87 22.1199L33.23 31.5699L37.33 28.3799L29.97 18.9299L31.64 17.6299L39 27.0799L43.1 23.8899L35.74 14.4399L37.44 13.1099L46.04 24.1499L32.76 34.4899H32.77Z" fill="white"/>
<path d="M44.81 9.37914L46.87 8.36914L53.03 20.9391L50.96 21.9491L44.8 9.37914H44.81Z" fill="white"/>
<path d="M73.6495 0.509766L76.1795 14.2798L73.9595 14.6898L71.7895 2.90977L65.0995 4.13977L67.2695 15.9198L65.0495 16.3298L62.5195 2.55977L73.6495 0.509766Z" fill="white"/>
<path d="M88.0704 0.00962527C92.3404 0.219625 94.5004 2.86963 94.2704 7.51963C94.0404 12.1696 91.6404 14.5996 87.3704 14.3896C83.0804 14.1796 80.9204 11.5296 81.1504 6.87963C81.3804 2.22963 83.7804 -0.200375 88.0704 0.00962527ZM87.4704 12.3496C90.3904 12.4896 91.9504 10.8696 92.1204 7.40963C92.2904 3.94963 90.8904 2.17963 87.9804 2.03963C85.0404 1.89963 83.4804 3.51963 83.3104 6.97963C83.1404 10.4396 84.5404 12.2096 87.4704 12.3496Z" fill="white"/>
<path d="M108.34 3.45949C111.76 4.45949 113.36 6.73949 112.75 9.74949L110.62 9.12949C110.91 7.35949 109.9 6.03949 107.77 5.41949C104.95 4.59949 103.02 5.84949 102.06 9.12949C101.11 12.3895 102.07 14.5095 104.9 15.3295C107.01 15.9495 108.57 15.3795 109.28 13.7295L111.41 14.3495C110.31 17.1995 107.7 18.2695 104.31 17.2795C100.22 16.0895 98.6903 12.9895 99.9903 8.51949C101.29 4.04949 104.25 2.26949 108.34 3.45949Z" fill="white"/>
<path d="M114.02 18.3196C114.32 18.5596 114.43 18.6196 114.53 18.6796C115.66 19.3196 116.16 18.9996 117.83 16.5396L122.72 9.28955L131.21 14.0796L124.33 26.2796L122.38 25.1796L128.28 14.7196L123.56 12.0596L119.58 17.8996C117.32 21.2196 116.05 21.8396 114.06 20.7196C113.68 20.4996 113.35 20.2696 113.06 20.0396L114.02 18.3296V18.3196Z" fill="white"/>
<path d="M138.59 19.6798L136.71 27.6898L136.79 27.7598L143.97 24.4998L145.73 26.0698L134.08 31.2398C132.17 32.0798 131 31.9498 129.65 30.7398C129.29 30.4198 129.07 30.1598 128.84 29.8798L130.19 28.4298C130.4 28.6998 130.55 28.8298 130.63 28.8998C131.58 29.7298 132.12 29.7798 133.31 29.2598L134.38 28.7898L136.76 18.0298L138.61 19.6798H138.59Z" fill="white"/>
<path d="M155.44 38.0995L153.85 39.3095L149.77 33.9695L140.23 41.2495L138.86 39.4495L149.99 30.9595L155.44 38.0995Z" fill="white"/>
<path d="M159.19 44.0898L160.15 46.1098L150.85 50.5298L150.88 50.5798L163.31 52.7298L164.19 54.5698L151.54 60.5798L150.58 58.5598L159.88 54.1398L159.85 54.0898L147.41 51.9198L146.54 50.0998L159.19 44.0898Z" fill="white"/>
<path d="M151.83 111.33L164.54 117.19L163.59 119.24L158.32 116.81L155.39 123.17L160.66 125.6L159.71 127.65L147 121.79L147.95 119.74L153.54 122.32L156.47 115.96L150.88 113.38L151.83 111.33Z" fill="white"/>
<path d="M145.22 124.94L152.96 137.85L151.56 139.68L137.08 135.56L138.49 133.72L141.5 134.59L145.44 129.45L143.82 126.77L145.22 124.94ZM143.45 135.17L150 137.07L150.04 137.02L146.51 131.17L143.45 135.17Z" fill="white"/>
<path d="M134.76 138.22L143.36 149.26L141.66 150.59L134.3 141.14L130.2 144.33L137.56 153.78L135.89 155.08L128.53 145.63L124.43 148.82L131.79 158.27L130.09 159.6L121.49 148.56L134.77 138.22H134.76Z" fill="white"/>
<path d="M122.73 163.32L120.67 164.33L114.51 151.76L116.58 150.75L122.74 163.32H122.73Z" fill="white"/>
<path d="M93.86 172.2L91.33 158.43L93.55 158.02L95.72 169.8L102.41 168.57L100.24 156.79L102.46 156.38L104.99 170.15L93.86 172.2Z" fill="white"/>
<path d="M79.46 172.69C75.19 172.48 73.03 169.83 73.26 165.18C73.49 160.53 75.89 158.1 80.16 158.31C84.45 158.52 86.61 161.17 86.38 165.82C86.15 170.47 83.75 172.9 79.46 172.69ZM80.06 160.35C77.14 160.21 75.58 161.83 75.41 165.29C75.24 168.75 76.64 170.52 79.55 170.66C82.49 170.8 84.05 169.18 84.22 165.72C84.39 162.26 82.99 160.49 80.06 160.35Z" fill="white"/>
<path d="M59.19 169.25C55.77 168.25 54.17 165.97 54.78 162.96L56.91 163.58C56.62 165.35 57.63 166.67 59.76 167.29C62.58 168.11 64.51 166.86 65.47 163.58C66.42 160.32 65.46 158.2 62.63 157.38C60.52 156.76 58.96 157.33 58.25 158.98L56.12 158.36C57.22 155.51 59.83 154.44 63.22 155.43C67.31 156.62 68.84 159.72 67.54 164.19C66.24 168.66 63.28 170.44 59.19 169.25Z" fill="white"/>
<path d="M53.5105 154.38C53.2105 154.14 53.1005 154.08 53.0005 154.02C51.8705 153.38 51.3705 153.7 49.7005 156.16L44.8105 163.41L36.3205 158.62L43.2005 146.42L45.1505 147.52L39.2505 157.98L43.9705 160.64L47.9505 154.8C50.2105 151.48 51.4805 150.86 53.4705 151.98C53.8505 152.2 54.1805 152.43 54.4705 152.66L53.5105 154.37V154.38Z" fill="white"/>
<path d="M28.9497 153.03L30.8297 145.02L30.7497 144.95L23.5697 148.21L21.8097 146.64L33.4597 141.47C35.3697 140.63 36.5397 140.76 37.8897 141.97C38.2497 142.29 38.4697 142.55 38.6997 142.83L37.3497 144.28C37.1397 144.01 36.9897 143.88 36.9097 143.81C35.9597 142.98 35.4197 142.93 34.2297 143.45L33.1597 143.92L30.7797 154.68L28.9297 153.03H28.9497Z" fill="white"/>
<path d="M12.1 134.6L13.69 133.39L17.77 138.73L27.31 131.45L28.68 133.25L17.55 141.74L12.1 134.6Z" fill="white"/>
<path d="M8.34 128.61L7.38 126.59L16.68 122.17L16.65 122.12L4.22 119.97L3.34 118.13L15.99 112.12L16.95 114.14L7.65 118.56L7.68 118.61L20.12 120.78L20.99 122.6L8.34 128.61Z" fill="white"/>
<path d="M7.69043 90.3501C9.89957 90.3501 11.6904 88.5592 11.6904 86.3501C11.6904 84.141 9.89957 82.3501 7.69043 82.3501C5.48129 82.3501 3.69043 84.141 3.69043 86.3501C3.69043 88.5592 5.48129 90.3501 7.69043 90.3501Z" fill="white"/>
<path d="M159.85 90.3501C162.06 90.3501 163.85 88.5592 163.85 86.3501C163.85 84.141 162.06 82.3501 159.85 82.3501C157.641 82.3501 155.85 84.141 155.85 86.3501C155.85 88.5592 157.641 90.3501 159.85 90.3501Z" fill="white"/>
</g>
<defs>
<clipPath id="clip0_13_522">
<rect width="167.54" height="172.7" fill="white"/>
</clipPath>
</defs>
</svg>
