<svg width="23" height="16" viewBox="0 0 23 16" fill="none" xmlns="http://www.w3.org/2000/svg">
<path d="M22.9148 7.72956C22.7337 7.46763 18.3809 1.33325 11.4999 1.33325C5.59554 1.33325 0.334213 7.43241 0.112834 7.69241C-0.0376114 7.86956 -0.0376114 8.12956 0.112834 8.30765C0.334213 8.56765 5.59554 14.6668 11.4999 14.6668C17.4043 14.6668 22.6656 8.56765 22.887 8.30765C23.026 8.14385 23.0384 7.9067 22.9148 7.72956ZM11.4999 13.7144C6.76668 13.7144 2.26624 9.22864 1.12296 8.00005C2.26436 6.77052 6.75998 2.28568 11.4999 2.28568C17.0382 2.28568 20.9473 6.76481 21.9019 7.97434C20.7997 9.16387 16.2735 13.7144 11.4999 13.7144Z" fill="#888888"/>
<path d="M11.5013 4.19019C9.38725 4.19019 7.66797 5.89879 7.66797 7.99976C7.66797 10.1007 9.38725 11.8093 11.5013 11.8093C13.6154 11.8093 15.3347 10.1007 15.3347 7.99976C15.3347 5.89879 13.6154 4.19019 11.5013 4.19019ZM11.5013 10.857C9.91625 10.857 8.6263 9.57505 8.6263 7.9998C8.6263 6.42455 9.91625 5.14261 11.5013 5.14261C13.0864 5.14261 14.3764 6.42455 14.3764 7.9998C14.3764 9.57505 13.0864 10.857 11.5013 10.857Z" fill="#888888"/>
</svg>
