<svg width="108" height="32" viewBox="0 0 108 32" fill="none" xmlns="http://www.w3.org/2000/svg">
<path d="M17.6212 24.855C17.9644 24.855 18.2426 25.1322 18.2426 25.474V30.519C18.2426 30.8609 17.9644 31.138 17.6212 31.138H14.4581C11.7611 31.138 9.65866 30.488 8.15066 29.1881C6.64267 27.8593 5.88867 25.7072 5.88867 22.7318V13.7314C5.88867 13.3895 5.61045 13.1124 5.26725 13.1124H1.68783C1.34463 13.1124 1.06641 12.8352 1.06641 12.4934V7.3289C1.06641 7.12483 1.23248 6.9594 1.43735 6.9594C3.89575 6.9594 5.88867 4.97422 5.88867 2.52537V1.51971C5.88867 1.26936 6.09242 1.06641 6.34375 1.06641H12.7057C13.0489 1.06641 13.3271 1.34355 13.3271 1.68542V6.34039C13.3271 6.68226 13.6054 6.9594 13.9486 6.9594H17.5777C17.9209 6.9594 18.1991 7.23654 18.1991 7.57841V12.4934C18.1991 12.8352 17.9209 13.1124 17.5777 13.1124H13.9486C13.6054 13.1124 13.3271 13.3895 13.3271 13.7314V22.8185C13.3271 23.5407 13.5011 24.0606 13.8491 24.3784C14.1971 24.6962 14.7771 24.855 15.5891 24.855H17.6212Z" fill="white"/>
<path d="M27.8939 31.4847C26.5889 31.4847 25.5159 31.1091 24.6749 30.3581C23.8629 29.5781 23.4569 28.6248 23.4569 27.4982C23.4569 26.3427 23.8629 25.375 24.6749 24.5951C25.5159 23.8151 26.5889 23.4251 27.8939 23.4251C29.1698 23.4251 30.2138 23.8151 31.0258 24.5951C31.8668 25.375 32.2873 26.3427 32.2873 27.4982C32.2873 28.6248 31.8668 29.5781 31.0258 30.3581C30.2138 31.1091 29.1698 31.4847 27.8939 31.4847ZM27.8939 13.849C26.5889 13.849 25.5159 13.4735 24.6749 12.7224C23.8629 11.9424 23.4569 10.9892 23.4569 9.86257C23.4569 8.70708 23.8629 7.73936 24.6749 6.9594C25.5159 6.17944 26.5889 5.78947 27.8939 5.78947C29.1698 5.78947 30.2138 6.17944 31.0258 6.9594C31.8668 7.73936 32.2873 8.70708 32.2873 9.86257C32.2873 10.9892 31.8668 11.9424 31.0258 12.7224C30.2138 13.4735 29.1698 13.849 27.8939 13.849Z" fill="white"/>
<path d="M69.7754 6.69941C72.7914 6.69941 75.1839 7.60936 76.9529 9.42926C78.7509 11.2492 79.6498 13.7768 79.6498 17.0122V30.519C79.6498 30.8609 79.3716 31.138 79.0284 31.138H72.8763C72.5331 31.138 72.2549 30.8609 72.2549 30.519V18.0088C72.2549 16.4489 71.8344 15.25 70.9934 14.4123C70.1814 13.5457 69.0504 13.1124 67.6004 13.1124C66.1504 13.1124 65.0049 13.5457 64.1639 14.4123C63.3519 15.25 62.9459 16.4489 62.9459 18.0088V30.519C62.9459 30.8609 62.6677 31.138 62.3245 31.138H56.1724C55.8292 31.138 55.5509 30.8609 55.5509 30.519V18.0088C55.5509 16.4489 55.1305 15.25 54.2895 14.4123C53.4775 13.5457 52.3465 13.1124 50.8965 13.1124C49.4465 13.1124 48.301 13.5457 47.46 14.4123C46.648 15.25 46.242 16.4489 46.242 18.0088V30.519C46.242 30.8609 45.9638 31.138 45.6206 31.138H39.4249C39.0817 31.138 38.8035 30.8609 38.8035 30.519V7.57841C38.8035 7.23654 39.0817 6.9594 39.4249 6.9594H45.6206C45.9638 6.9594 46.242 7.23654 46.242 7.57841V9.99256C46.996 8.98151 47.982 8.18711 49.2 7.60936C50.418 7.00273 51.7955 6.69941 53.3325 6.69941C55.1595 6.69941 56.7834 7.08939 58.2044 7.86935C59.6544 8.6493 60.7854 9.76146 61.5974 11.2058C62.4384 9.87701 63.5839 8.79374 65.0339 7.95601C66.4839 7.11828 68.0644 6.69941 69.7754 6.69941Z" fill="white"/>
<path d="M107.733 18.6587C107.733 19.352 107.69 20.0742 107.603 20.8253H90.7681C90.8841 22.3274 91.3626 23.4829 92.2036 24.2917C93.0736 25.0717 94.1321 25.4617 95.3791 25.4617C97.0897 25.4617 98.3199 24.7992 99.0697 23.4742C99.1886 23.2641 99.4056 23.1218 99.6477 23.1218H106.368C106.774 23.1218 107.071 23.5027 106.943 23.8858C106.512 25.1724 105.847 26.3476 104.949 27.4116C103.905 28.6826 102.586 29.6792 100.991 30.4014C99.3956 31.1236 97.6121 31.4847 95.6401 31.4847C93.2621 31.4847 91.1451 30.9791 89.2891 29.9681C87.4331 28.957 85.9832 27.5127 84.9392 25.635C83.8952 23.7573 83.3732 21.5619 83.3732 19.0487C83.3732 16.5355 83.8807 14.3401 84.8957 12.4624C85.9397 10.5847 87.3896 9.14038 89.2456 8.12933C91.1016 7.11828 93.2331 6.61275 95.6401 6.61275C97.9891 6.61275 100.077 7.10384 101.904 8.086C103.731 9.06817 105.152 10.4692 106.167 12.2891C107.211 14.109 107.733 16.2322 107.733 18.6587ZM100.121 16.7088C100.121 15.4378 99.6856 14.4267 98.8156 13.6757C97.9456 12.9246 96.8581 12.5491 95.5531 12.5491C94.3061 12.5491 93.2476 12.9102 92.3776 13.6323C91.5366 14.3545 91.0146 15.38 90.8116 16.7088H100.121Z" fill="white"/>
</svg>
