<svg width="227" height="54" viewBox="0 0 227 54" fill="none" xmlns="http://www.w3.org/2000/svg">
<g clip-path="url(#clip0_299_268)">
<path d="M35.1596 19.4106C35.3596 12.8006 32.7796 10.5706 26.8496 11.4506C20.2796 12.4306 13.6996 13.4106 7.09964 14.1206C3.36964 14.5206 0.779638 11.8806 1.65964 8.6306C2.04964 7.1806 3.46964 5.0906 4.65964 4.9206C13.7496 3.5906 22.9096 1.8606 32.0396 1.8506C39.6896 1.8406 45.0596 8.4906 45.2296 16.1606C45.4396 25.4006 45.3796 34.6506 45.2596 43.9006C45.1896 49.2006 41.6896 52.6106 36.3296 52.6806C28.8096 52.7806 21.2896 52.8006 13.7696 52.6006C6.84964 52.4206 1.46964 48.2006 0.419638 42.5206C-1.17036 34.0106 1.81964 27.0806 9.05964 24.6106C14.3596 22.8006 20.0596 22.1306 25.5996 21.0306C28.7096 20.4106 31.8596 19.9706 35.1596 19.4106ZM35.2096 29.7206C27.9796 30.8606 21.2896 31.8606 14.6196 32.9706C11.6696 33.4606 9.92964 35.4306 10.0696 38.3606C10.2096 41.4406 12.4296 42.9206 15.3396 42.9806C21.1396 43.1006 26.9396 43.1206 32.7296 42.9206C33.5796 42.8906 35.0296 41.4806 35.0896 40.6306C35.3796 37.2106 35.2096 33.7606 35.2096 29.7206Z" fill="#A4A5A9"/>
<path d="M226.12 27.0099C226.07 41.4799 214.41 53.1399 200.04 53.0799C185.71 53.0299 173.95 41.2599 173.86 26.9099C173.78 12.4099 185.64 0.719872 200.31 0.829872C214.95 0.949872 226.17 12.3299 226.12 27.0099ZM200.06 43.3699C209.15 43.3799 216.58 36.0899 216.65 27.0799C216.72 17.8699 209.3 10.3399 200.14 10.3199C190.95 10.2899 183.49 17.7999 183.56 27.0099C183.62 36.0799 190.97 43.3599 200.06 43.3699Z" fill="#A4A5A9"/>
<path d="M141.699 0.840122C148.819 0.870122 154.829 4.77013 157.069 11.4001C160.889 22.7001 164.479 34.0801 168.059 45.4501C169.189 49.0201 168.089 51.6401 165.439 52.5701C162.299 53.6601 159.829 52.2501 158.559 48.3601C155.159 37.9601 151.849 27.5301 148.509 17.1001C147.139 12.8101 144.679 10.4001 141.509 10.6301C137.669 10.9101 135.819 13.3701 134.719 16.9001C131.459 27.3401 127.999 37.7301 124.609 48.1301C123.309 52.1301 121.139 53.5301 117.859 52.5401C115.039 51.6901 113.969 48.8901 115.129 45.2501C118.649 34.2401 122.139 23.2301 125.739 12.2501C128.109 5.07013 134.199 0.800122 141.699 0.840122Z" fill="#A4A5A9"/>
<path d="M80.9199 0.560199C87.9299 0.660199 94.1099 4.8602 96.4099 11.6602C100.19 22.8402 103.74 34.1002 107.29 45.3602C108.38 48.8302 107.19 51.6702 104.65 52.5102C101.43 53.5702 98.9499 52.1202 97.7099 48.2802C94.3499 37.8702 91.0699 27.4402 87.7299 17.0202C86.3099 12.5902 83.9799 10.3802 80.7299 10.5902C76.8499 10.8302 75.0699 13.3302 73.9799 16.8602C70.7199 27.3002 67.2699 37.6902 63.8599 48.0802C62.5499 52.0802 60.2499 53.5102 57.0799 52.4902C54.2999 51.5902 53.2299 48.8502 54.3999 45.1602C57.8999 34.1402 61.3799 23.1202 65.0199 12.1502C67.3699 5.0402 73.8399 0.460199 80.9199 0.560199Z" fill="#A4A5A9"/>
<path d="M200.03 34.7401C195.78 34.7101 192.28 31.2501 192.21 27.0001C192.14 22.5701 195.7 18.9801 200.13 19.0001C204.39 19.0201 207.89 22.4801 207.95 26.7501C208.03 31.1801 204.46 34.7701 200.03 34.7401Z" fill="#A4A5A9"/>
</g>
<defs>
<clipPath id="clip0_299_268">
<rect width="227" height="54" fill="white"/>
</clipPath>
</defs>
</svg>
