<svg width="188" height="45" viewBox="0 0 188 45" fill="none" xmlns="http://www.w3.org/2000/svg">
<g clip-path="url(#clip0_299_365)">
<path d="M180.3 0.759766H7.4801H0.910156V44.7698H7.4801H180.3H187.64V0.759766H180.3ZM25.7401 17.1098C21.9201 17.1098 18.0901 17.1198 14.2701 17.1298C13.7601 17.1298 13.2601 17.1398 12.7501 17.1498C12.2901 17.1598 12.2701 17.1598 12.2701 17.6198C12.2701 19.6798 12.2701 21.7398 12.2601 23.7898C12.2401 30.0698 12.2301 36.3398 12.2101 42.6198C12.2101 43.2398 12.2101 43.2398 11.6101 43.2398C10.7301 43.2398 9.8601 43.2398 8.9801 43.2398C8.5001 43.2398 8.49011 43.2298 8.49011 42.7498C8.49011 37.9798 8.49011 33.2098 8.49011 28.4398C8.49011 23.6698 8.49011 18.8998 8.49011 14.1298C8.49011 13.6098 8.49014 13.6098 9.02014 13.6098C14.5701 13.6098 20.1102 13.6098 25.6602 13.6098C26.1802 13.6098 26.1801 13.6098 26.1901 14.1398C26.1901 14.9798 26.1801 15.8298 26.2001 16.6698C26.2001 17.0098 26.0701 17.1098 25.7401 17.1098ZM54.6901 28.9298C54.5601 28.9298 54.4202 28.9298 54.2902 28.9298C50.3902 28.9298 46.4801 28.9298 42.5801 28.9298C38.6301 28.9298 34.6801 28.9298 30.7301 28.9298C30.1401 28.9298 30.1601 28.9398 30.1901 29.5198C30.2801 31.1198 30.6301 32.6598 31.3701 34.0898C33.1401 37.4898 35.9101 39.4998 39.7201 39.9598C41.9901 40.2298 44.2102 39.9498 46.2802 38.8698C47.9002 38.0198 49.1101 36.7498 50.1401 35.2698C50.3101 35.0298 50.4801 34.7898 50.6401 34.5498C50.7401 34.3898 50.8501 34.3698 51.0001 34.4698C51.9401 35.0898 52.8801 35.7098 53.8201 36.3198C54.0401 36.4598 53.9701 36.6098 53.8601 36.7698C52.9501 38.1298 51.9201 39.3898 50.6401 40.4298C48.4501 42.2198 45.9101 43.1498 43.1101 43.4398C40.6201 43.6998 38.1702 43.5598 35.7902 42.7098C31.6302 41.2098 28.8001 38.3498 27.3501 34.1998C25.8901 30.0298 25.9201 25.8198 27.6901 21.7498C29.7601 16.9798 33.4501 14.1198 38.5901 13.2898C41.2901 12.8598 44.0001 12.9998 46.5801 14.0898C50.4101 15.6898 52.8401 18.5498 54.1101 22.4498C54.6601 24.1498 54.8902 25.9098 54.9202 27.6998C54.9302 27.9998 54.9401 28.3098 54.9601 28.6098C54.9901 28.8198 54.9101 28.9298 54.6901 28.9298ZM87.0602 43.2398C86.0502 43.2298 85.0401 43.2298 84.0201 43.2398C83.7501 43.2398 83.6702 43.1098 83.6702 42.8698C83.6702 42.0298 83.6702 41.1798 83.6702 40.3398C83.6702 40.2098 83.6601 40.0798 83.6401 39.8698C83.4201 40.0398 83.2601 40.1498 83.1101 40.2698C80.8301 42.1798 78.2301 43.3498 75.2601 43.5998C71.4501 43.9198 67.8801 43.1898 64.7501 40.8998C61.7301 38.6898 59.8401 35.7098 59.0901 32.0398C58.2701 27.9998 58.7001 24.0998 60.7601 20.4798C62.9901 16.5598 66.4101 14.2498 70.8401 13.4398C74.2001 12.8298 77.4401 13.2398 80.4601 14.8398C81.4401 15.3498 82.3001 16.0798 83.2101 16.7098C83.3201 16.7798 83.4201 16.8698 83.5201 16.9498C83.5701 16.9398 83.6102 16.9298 83.6602 16.9098C83.6602 16.3098 83.6602 15.6998 83.6602 15.0998C83.6602 14.7398 83.6702 14.3798 83.6602 14.0198C83.6602 13.7898 83.7601 13.6998 83.9901 13.6998C85.0201 13.6998 86.0601 13.6998 87.0901 13.6998C87.3001 13.6998 87.4001 13.7898 87.3901 14.0098C87.3801 14.1098 87.3901 14.2098 87.3901 14.3098C87.3901 23.7498 87.3901 33.1798 87.3901 42.6198C87.3901 42.6998 87.3801 42.7798 87.3901 42.8598C87.4301 43.1298 87.3202 43.2398 87.0602 43.2398ZM97.7902 22.4998C97.7902 29.1398 97.7902 35.7698 97.7902 42.4098C97.7902 42.5398 97.7802 42.6798 97.7902 42.8098C97.8002 43.0498 97.7001 43.1598 97.4501 43.1498C96.3901 43.1398 95.3401 43.1398 94.2802 43.1498C94.0302 43.1498 93.9401 43.0398 93.9501 42.7998C93.9601 42.6998 93.9501 42.5998 93.9501 42.4998C93.9501 29.1398 93.9501 15.7698 93.9501 2.40977C93.9501 1.71977 93.8901 1.76978 94.5801 1.76978C95.4801 1.76978 96.3801 1.76978 97.2802 1.76978C97.7802 1.76978 97.7802 1.76977 97.7802 2.27977C97.7802 7.91977 97.7802 13.5498 97.7802 19.1898C97.7902 20.2998 97.7902 21.3998 97.7902 22.4998ZM146 43.1598C145.1 43.1598 144.2 43.1598 143.3 43.1598C142.83 43.1598 142.83 43.1598 142.83 42.6898C142.83 39.2398 142.84 35.7798 142.83 32.3298C142.82 29.6898 142.87 27.0398 142.74 24.3998C142.61 21.7098 141.63 19.3698 139.27 17.8298C137.81 16.8798 136.18 16.5698 134.46 16.7298C132.96 16.8698 131.53 17.2498 130.29 18.1398C128.34 19.5498 127.38 21.4998 127.32 23.8798C127.26 26.2398 127.26 28.5998 127.26 30.9698C127.25 34.8498 127.24 38.7298 127.24 42.6098C127.24 43.1498 127.24 43.1498 126.71 43.1498C125.81 43.1498 124.91 43.1498 124.01 43.1498C123.53 43.1498 123.52 43.1498 123.52 42.6598C123.52 38.6798 123.52 34.6898 123.51 30.7098C123.51 28.7798 123.49 26.8398 123.45 24.9098C123.41 23.1398 123.06 21.4498 122.11 19.9198C120.97 18.0998 119.3 17.0398 117.19 16.7798C113.82 16.3698 111.13 17.6098 109.2 20.3998C108.57 21.3098 108.21 22.3298 108.21 23.4698C108.2 26.9198 108.15 30.3798 108.13 33.8298C108.11 36.7698 108.1 39.6998 108.09 42.6398C108.09 43.1498 108.09 43.1498 107.59 43.1498C106.67 43.1498 105.75 43.1498 104.82 43.1498C104.37 43.1498 104.37 43.1498 104.37 42.6898C104.37 39.4598 104.37 36.2298 104.37 32.9998C104.37 26.7198 104.37 20.4398 104.37 14.1698C104.37 13.5998 104.37 13.5998 104.95 13.5998C105.86 13.5998 106.77 13.6098 107.68 13.5998C107.98 13.5998 108.1 13.6998 108.09 14.0198C108.08 14.9998 108.09 15.9798 108.09 16.9598C108.09 17.0898 108.11 17.2198 108.12 17.4398C108.3 17.2398 108.42 17.1098 108.54 16.9798C110.49 14.6398 112.99 13.4098 116.03 13.2498C117.55 13.1698 119.04 13.2798 120.49 13.7698C122.66 14.4998 124.31 15.8798 125.51 17.8098C125.63 18.0098 125.76 18.1998 125.92 18.4498C126.05 18.2998 126.16 18.1898 126.24 18.0698C127.98 15.5398 130.38 13.9698 133.38 13.4498C136.27 12.9498 139.13 13.0998 141.72 14.7298C144.01 16.1698 145.36 18.2798 146.06 20.8498C146.36 21.9598 146.54 23.0798 146.53 24.2398C146.52 30.3598 146.54 36.4798 146.55 42.5998C146.56 43.1598 146.56 43.1598 146 43.1598ZM178.79 28.9298C174.81 28.9298 170.83 28.9298 166.84 28.9298C166.84 28.9498 166.84 28.9698 166.84 28.9798C162.9 28.9798 158.97 28.9798 155.03 28.9798C154.51 28.9798 154.5 28.9998 154.53 29.5098C154.68 32.6198 155.89 35.2398 158.18 37.3398C159.94 38.9498 162.03 39.8298 164.42 39.9998C166.23 40.1298 167.99 39.9798 169.69 39.3098C171.74 38.4998 173.26 37.0498 174.5 35.2698C174.67 35.0298 174.83 34.7798 175.02 34.5698C175.08 34.4998 175.28 34.4598 175.35 34.5098C176.28 35.0898 177.19 35.6798 178.11 36.2698C178.34 36.4098 178.29 36.5898 178.18 36.7598C177.77 37.3598 177.38 37.9798 176.91 38.5398C174.51 41.4398 171.36 42.9698 167.67 43.4398C164.86 43.7998 162.1 43.5598 159.46 42.4698C155.92 41.0098 153.4 38.4898 151.99 34.9498C150.16 30.3698 150.19 25.7498 152.28 21.2598C154.26 16.9898 157.67 14.4198 162.26 13.4098C163.52 13.1298 164.81 13.1598 166.09 13.1598C168.87 13.1498 171.39 13.9798 173.62 15.6198C176.49 17.7298 178.15 20.6098 178.89 24.0698C179.2 25.5298 179.27 27.0098 179.27 28.4998C179.26 28.8998 179.23 28.9298 178.79 28.9298Z" fill="#A4A5A9"/>
<path d="M171.92 18.8593C169.56 16.9093 166.8 16.2493 163.83 16.7293C159.23 17.4793 156.25 20.1793 154.88 24.6193C154.57 25.6193 154.48 25.5793 155.6 25.5893C158.77 25.6093 161.94 25.5993 165.11 25.5993C165.11 25.6093 165.11 25.6193 165.11 25.6293C168.23 25.6293 171.34 25.6293 174.46 25.6293C175.57 25.6293 175.57 25.7893 175.3 24.5993C174.78 22.3193 173.73 20.3493 171.92 18.8593Z" fill="#A4A5A9"/>
<path d="M62.5807 28.4098C62.4807 25.8098 63.2708 23.3698 64.8808 21.2198C66.7108 18.7898 69.1707 17.4098 72.2107 17.0898C74.3107 16.8698 76.3408 17.1198 78.2708 18.0098C81.1608 19.3498 82.8508 21.6898 83.7608 24.6598C84.1908 26.0798 84.2407 27.5398 84.2207 28.9998C84.1907 31.4298 83.5508 33.6698 82.1308 35.6498C80.3408 38.1498 77.8607 39.4798 74.8207 39.7698C73.1107 39.9298 71.4208 39.8698 69.8008 39.2598C66.1608 37.9098 63.9708 35.2598 62.9208 31.5898C62.6208 30.5898 62.5607 29.5498 62.5807 28.4098Z" fill="#A4A5A9"/>
<path d="M40.7301 25.6199C37.4801 25.6199 34.2301 25.6199 30.9801 25.6199C30.8601 25.6199 30.7301 25.6199 30.6101 25.6199C30.3701 25.6199 30.3001 25.5399 30.3601 25.2899C31.4401 20.7099 34.8302 17.43 39.3802 16.74C42.2102 16.31 44.9002 16.7999 47.2402 18.5899C49.3102 20.1699 50.5202 22.29 51.0202 24.82C51.2102 25.76 51.2401 25.63 50.3501 25.63C47.1401 25.63 43.9301 25.6199 40.7301 25.6199Z" fill="#A4A5A9"/>
</g>
<defs>
<clipPath id="clip0_299_365">
<rect width="188" height="45" fill="white"/>
</clipPath>
</defs>
</svg>
