<svg width="221" height="42" viewBox="0 0 221 42" fill="none" xmlns="http://www.w3.org/2000/svg">
<g clip-path="url(#clip0_299_355)">
<path d="M74.9707 41.7795C74.0907 41.6895 73.2107 41.6396 72.3307 41.5196C70.0207 41.1796 67.8507 40.4696 66.0207 38.9596C64.0307 37.3296 62.9507 35.1695 62.4507 32.6795C61.9607 30.2095 62.0107 27.7495 62.5207 25.2795C63.2907 21.5795 64.0007 17.8596 64.7707 14.1596C65.3007 11.6396 66.1607 9.23955 67.5507 7.05955C69.5407 3.93955 72.3207 1.92955 75.9407 1.15955C79.7607 0.349554 83.6107 0.339553 87.4207 1.21955C91.8907 2.25955 94.8207 5.50955 95.5607 10.0295C96.0007 12.7095 95.8207 15.3395 95.2407 17.9795C94.4907 21.4095 93.8707 24.8696 93.1507 28.2996C92.6307 30.7896 91.7707 33.1596 90.3907 35.3196C88.1607 38.8096 84.9607 40.7895 80.9007 41.4295C79.9707 41.5795 79.0307 41.6196 78.0907 41.7096C77.9307 41.7296 77.7807 41.7595 77.6307 41.7795C76.7507 41.7795 75.8607 41.7795 74.9707 41.7795ZM86.8707 15.0496C86.7907 14.3296 86.7507 13.5995 86.6207 12.8895C86.1307 10.2095 84.5007 8.52956 81.9207 8.20956C79.8507 7.94956 78.0307 8.66954 76.4907 10.0395C74.4607 11.8595 73.3507 14.2295 72.7607 16.8395C72.2107 19.2495 71.7707 21.6796 71.3007 24.0996C70.9607 25.8796 70.8007 27.6596 71.1207 29.4596C71.5607 31.9796 73.1407 33.6996 75.4707 34.1096C77.4407 34.4496 79.2207 33.9296 80.7907 32.7396C82.7707 31.2496 83.9907 29.1996 84.6407 26.8596C85.2007 24.8096 85.6107 22.7195 86.0507 20.6395C86.4407 18.8095 86.8007 16.9596 86.8707 15.0496Z" fill="#A4A5A9"/>
<path d="M115.63 0.439696C116.54 0.549696 117.45 0.609694 118.35 0.779694C122.94 1.65969 125.91 4.65969 126.78 9.24969C127.24 11.6397 127.32 14.0397 126.89 16.4497C126.83 16.7797 126.71 16.9197 126.37 16.9097C124.1 16.8897 121.82 16.8897 119.55 16.8597C118.93 16.8497 118.94 16.8297 118.96 16.2297C119.01 14.7097 119.01 13.1997 118.56 11.7297C117.65 8.75969 115.54 7.74969 112.62 8.28969C111.05 8.58969 109.88 9.5197 108.97 10.7997C107.62 12.6997 106.91 14.8697 106.47 17.1297C105.97 19.6797 105.49 22.2297 105.05 24.7997C104.73 26.6697 104.67 28.5497 105.22 30.4097C106.16 33.5697 109.18 34.9697 112.22 33.6797C113.67 33.0597 114.7 31.9697 115.54 30.6797C116.37 29.3997 116.92 27.9897 117.29 26.5097C117.39 26.0897 117.57 25.9297 118.02 25.9297C120.25 25.9697 122.48 25.9797 124.71 25.9897C125.06 25.9897 125.21 26.0897 125.14 26.4597C124.69 28.9397 124.18 31.3897 123.1 33.6997C121.92 36.2497 120.28 38.3897 117.81 39.8297C116.12 40.8097 114.29 41.3397 112.37 41.5097C110.91 41.6397 109.43 41.7097 107.96 41.6797C105.87 41.6497 103.84 41.2897 101.95 40.3397C99.09 38.8997 97.49 36.4897 96.77 33.4497C96.1 30.6297 96.16 27.7897 96.67 24.9397C97.3 21.4297 97.85 17.8997 98.48 14.3797C98.98 11.5797 99.8099 8.87969 101.35 6.44969C103.38 3.25969 106.28 1.38969 109.99 0.779694C110.88 0.629694 111.78 0.589694 112.67 0.499694C112.83 0.479694 112.98 0.449686 113.13 0.429688C113.97 0.439686 114.8 0.439696 115.63 0.439696Z" fill="#A4A5A9"/>
<path d="M220.011 1.55922C219.781 2.77922 219.551 3.99922 219.331 5.21922C219.091 6.53922 218.851 7.85922 218.641 9.18922C218.571 9.58922 218.341 9.63922 218.001 9.63922C214.931 9.62922 211.851 9.63922 208.781 9.63922C208.061 9.63922 208.061 9.63922 207.931 10.3392C206.441 18.7792 204.961 27.2092 203.471 35.6492C203.181 37.3192 202.881 38.9992 202.601 40.6692C202.541 41.0392 202.391 41.1992 201.991 41.1992C199.621 41.1792 197.251 41.1892 194.871 41.1892C194.381 41.1892 194.321 41.1092 194.401 40.6292C195.691 33.3292 196.991 26.0392 198.281 18.7392C198.781 15.8992 199.281 13.0592 199.781 10.2192C199.871 9.67922 199.841 9.63922 199.271 9.63922C196.641 9.63922 194.011 9.63922 191.381 9.63922C191.241 9.63922 191.091 9.63922 190.951 9.63922C190.381 9.63922 190.351 9.58922 190.451 9.00922C190.591 8.23922 190.721 7.45922 190.861 6.68922C191.141 5.11922 191.431 3.53922 191.691 1.96922C191.761 1.56922 191.941 1.44922 192.321 1.44922C193.151 1.46922 193.981 1.44922 194.811 1.44922C202.941 1.44922 211.071 1.44922 219.211 1.44922C219.481 1.44922 219.751 1.46922 220.021 1.46922C220.011 1.49922 220.011 1.52922 220.011 1.55922Z" fill="#A4A5A9"/>
<path d="M19.2006 9.49975C19.3206 9.33975 19.4406 9.16974 19.5706 9.00974C21.5906 6.59974 23.6105 4.18975 25.6205 1.76975C25.8105 1.53975 26.0206 1.43975 26.3206 1.43975C34.2106 1.44975 42.1005 1.30974 49.9905 1.50974C56.0705 1.65974 61.2205 5.88975 62.1705 12.1097C62.7405 15.8597 61.7905 19.3197 59.8105 22.5097C57.6405 26.0297 54.6206 28.5998 50.8806 30.3298C50.3406 30.5798 50.3305 30.5797 50.6105 31.0897C52.3405 34.2697 54.0705 37.4398 55.8005 40.6097C55.8805 40.7598 55.9505 40.9098 56.0605 41.1298C55.8405 41.1498 55.6905 41.1697 55.5405 41.1697C52.9005 41.1697 50.2505 41.1597 47.6105 41.1797C47.2105 41.1797 46.9905 41.0397 46.8105 40.6898C45.3105 37.9298 43.7905 35.1698 42.3005 32.4098C42.0905 32.0298 41.8505 31.8897 41.4305 31.8997C39.8005 31.9197 38.1705 31.9197 36.5405 31.8997C36.1205 31.8897 35.9405 32.0298 35.8605 32.4598C35.3905 35.1998 34.9005 37.9398 34.4205 40.6898C34.3605 41.0298 34.2305 41.1797 33.8705 41.1797C31.4705 41.1697 29.0705 41.1697 26.6705 41.1797C26.2905 41.1797 26.1705 41.0797 26.2405 40.6797C26.7305 37.9797 27.1905 35.2798 27.6705 32.5798C27.7905 31.9298 27.7805 31.9197 27.1005 31.9197C18.5105 31.9197 9.92057 31.9197 1.33057 31.9197C1.11057 31.9197 0.880547 31.9197 0.560547 31.9197C0.660547 31.7397 0.700569 31.6397 0.770569 31.5597C2.84057 29.0797 4.92053 26.6098 6.98053 24.1298C7.26053 23.7998 7.55052 23.6797 7.97052 23.6797C18.4305 23.6897 28.9005 23.6897 39.3605 23.6797C40.9305 23.6797 42.5106 23.6898 44.0706 23.5798C46.5106 23.4097 48.8606 22.8497 50.8406 21.3097C52.9806 19.6397 54.0106 17.4298 53.7106 14.7098C53.4106 12.0198 51.2206 9.96976 48.5106 9.70975C47.9706 9.65975 47.4306 9.62975 46.8806 9.62975C37.9006 9.62975 28.9306 9.62975 19.9506 9.62975C19.7206 9.62975 19.5006 9.62975 19.2706 9.62975C19.2506 9.58975 19.2306 9.54975 19.2006 9.49975Z" fill="#A4A5A9"/>
<path d="M138.571 18.8697C138.921 18.4597 139.271 18.0597 139.621 17.6497C144.051 12.3797 148.481 7.10973 152.911 1.82973C153.121 1.57973 153.341 1.43972 153.671 1.44972C156.861 1.45972 160.041 1.45973 163.231 1.45973C163.351 1.45973 163.481 1.47972 163.701 1.50972C163.361 1.91972 163.091 2.26972 162.801 2.60972C159.191 6.93972 155.571 11.2797 151.951 15.6097C150.111 17.8097 148.271 20.0197 146.421 22.2197C146.171 22.5097 146.141 22.7397 146.331 23.0897C149.471 28.9297 152.601 34.7797 155.721 40.6197C155.801 40.7697 155.871 40.9197 155.981 41.1397C155.751 41.1597 155.591 41.1897 155.431 41.1897C152.771 41.1897 150.111 41.1797 147.451 41.1997C147.031 41.1997 146.811 41.0597 146.621 40.6997C143.781 35.3797 140.931 30.0697 138.091 24.7497C137.951 24.4897 137.811 24.2297 137.671 23.9697C137.631 23.9697 137.591 23.9797 137.551 23.9797C137.481 24.2997 137.401 24.6197 137.351 24.9397C136.421 30.1697 135.501 35.3997 134.581 40.6297C134.511 41.0297 134.361 41.1997 133.921 41.1997C131.561 41.1797 129.201 41.1897 126.841 41.1897C126.281 41.1897 126.261 41.1697 126.361 40.5897C127.021 36.8097 127.691 33.0297 128.361 29.2397C129.241 24.2597 130.111 19.2797 130.991 14.3097C131.711 10.2197 132.431 6.12972 133.141 2.02972C133.211 1.59972 133.391 1.43972 133.841 1.44972C136.161 1.46972 138.471 1.44972 140.791 1.44972C141.461 1.44972 141.491 1.47972 141.381 2.11972C140.431 7.54972 139.471 12.9797 138.511 18.3997C138.491 18.5397 138.471 18.6697 138.461 18.8097C138.491 18.8297 138.531 18.8497 138.571 18.8697Z" fill="#A4A5A9"/>
<path d="M186.93 17.4497C186.4 18.0997 185.86 18.7397 185.33 19.3897C183.81 21.2097 182.28 23.0197 180.79 24.8597C180.43 25.2997 180.06 25.4797 179.49 25.4797C176.29 25.4497 173.09 25.4697 169.89 25.4697C169.19 25.4697 169.19 25.4697 169.08 26.1497C168.72 28.1697 168.37 30.1997 168.01 32.2197C167.89 32.8997 167.9 32.9297 168.59 32.9297C173.51 32.9297 178.42 32.9297 183.34 32.9297C183.48 32.9297 183.63 32.9297 183.77 32.9297C184.35 32.9397 184.37 32.9597 184.27 33.5097C183.85 35.8997 183.42 38.2897 183.01 40.6797C182.94 41.0897 182.75 41.1797 182.38 41.1797C180.02 41.1697 177.66 41.1797 175.31 41.1797C169.92 41.1797 164.53 41.1797 159.15 41.1797C158.99 41.1797 158.84 41.1697 158.68 41.1797C158.37 41.1897 158.29 41.0497 158.34 40.7497C158.63 39.1597 158.9 37.5697 159.17 35.9797C160.05 30.9697 160.93 25.9697 161.81 20.9597C162.54 16.8297 163.27 12.6897 164 8.55969C164.38 6.37969 164.77 4.1997 165.14 2.0197C165.21 1.6097 165.36 1.42969 165.8 1.42969C173.66 1.43969 181.52 1.4397 189.38 1.4397C189.88 1.4397 189.93 1.4997 189.84 1.9897C189.44 4.3097 189.03 6.62969 188.62 8.94969C188.5 9.60969 188.49 9.6097 187.83 9.6097C184.06 9.6097 180.28 9.6097 176.51 9.6097C175.18 9.6097 173.85 9.6197 172.52 9.6097C172.15 9.6097 171.96 9.70969 171.89 10.1197C171.52 12.3197 171.12 14.5097 170.74 16.6997C170.65 17.2197 170.7 17.2697 171.28 17.2697C176.25 17.2697 181.23 17.2697 186.2 17.2697C186.44 17.2697 186.67 17.2897 186.91 17.2997C186.89 17.3597 186.91 17.4097 186.93 17.4497Z" fill="#A4A5A9"/>
<path d="M44.5208 12.68C44.1908 13.08 43.8608 13.49 43.5208 13.89C41.7208 16.05 39.9108 18.2101 38.1208 20.3801C37.8708 20.6801 37.6108 20.7701 37.2408 20.7701C32.2808 20.76 27.3208 20.76 22.3608 20.76C18.4108 20.76 14.4708 20.76 10.5208 20.76C10.3208 20.76 10.1308 20.76 9.80078 20.76C10.1508 20.32 10.4208 19.98 10.7008 19.65C12.5808 17.39 14.4808 15.13 16.3508 12.87C16.5808 12.59 16.8508 12.54 17.1808 12.54C20.8508 12.54 24.5308 12.54 28.2008 12.54C33.4208 12.54 38.6408 12.54 43.8508 12.54C44.0508 12.54 44.2408 12.54 44.4408 12.54C44.4708 12.59 44.5008 12.64 44.5208 12.68Z" fill="#A4A5A9"/>
</g>
<defs>
<clipPath id="clip0_299_355">
<rect width="221" height="42" fill="white"/>
</clipPath>
</defs>
</svg>
