<svg width="250" height="84" viewBox="0 0 250 84" fill="none" xmlns="http://www.w3.org/2000/svg">
<g clip-path="url(#clip0_299_341)">
<path d="M0.25 64.0395C0.25 62.8395 0.25 61.6395 0.25 60.4295C0.96 56.7795 2.85001 53.7295 5.32001 51.0695C7.20001 49.0495 9.24 47.1395 11.38 45.3895C17.68 40.2595 24.77 36.3795 32.05 32.8495C32.77 32.4995 33.5 32.1595 34.45 31.7195C34.3 32.2395 34.21 32.4795 34.15 32.7395C33.19 36.7095 34.1 39.1095 36.72 41.1395C37.27 41.5595 37.83 41.9695 38.42 42.3295C39.08 42.7495 39.79 43.0995 40.46 43.4995C41.69 44.2295 42.94 44.9395 44.13 45.7195C44.99 46.2795 45.74 46.9895 45.93 48.0695C46.12 49.0795 45.96 50.0395 45.13 50.7095C44.18 51.4795 43.08 51.4895 41.99 51.0095C41.03 50.5895 40.66 49.7895 40.7 48.7695C40.71 48.4495 40.7 48.1195 40.7 47.7995C40.69 46.2595 40.83 46.3395 39.31 46.3395C38.11 46.3395 36.91 46.3295 35.7 46.3295C33.57 46.3295 33.57 46.3295 33.59 48.4395C33.63 52.3295 35.68 54.9595 39.53 55.6295C41.51 55.9695 43.59 56.0495 45.59 55.8695C49.85 55.4895 52.08 53.2295 52.59 49.1895C52.99 45.9895 52.1 43.3395 49.34 41.4895C48.65 41.0295 47.95 40.5695 47.24 40.1595C45.64 39.2295 44.02 38.3595 42.44 37.3995C41.9 37.0695 41.39 36.6295 40.99 36.1395C40.34 35.3395 40.37 34.1995 40.95 33.2795C41.46 32.4795 42.47 32.1395 43.66 32.3695C44.62 32.5595 45.19 33.1895 45.36 34.2895C45.42 34.6995 45.45 35.1195 45.45 35.5295C45.44 36.0695 45.71 36.2595 46.22 36.2495C47.93 36.2395 49.64 36.2395 51.35 36.2595C51.88 36.2695 52.08 36.0495 52.08 35.5195C52.14 31.7695 50.97 29.1495 46.81 28.2395C46.18 28.0995 45.54 28.0495 44.9 27.9395C44.61 27.8895 44.32 27.8095 43.76 27.6895C44.17 27.4795 44.32 27.3895 44.47 27.3395C50.05 25.2895 55.6 23.1695 61.21 21.2095C70.57 17.9295 80.11 15.2495 89.75 12.9795C97.6 11.1295 105.5 9.46953 113.41 7.91953C119.42 6.73953 125.48 5.79952 131.54 4.86952C135.91 4.19952 140.32 3.68952 144.71 3.17952C148.84 2.69952 152.96 2.20952 157.1 1.89952C162.58 1.48952 168.07 1.26952 173.56 0.949524C173.97 0.929524 174.38 0.829531 174.79 0.769531C181.36 0.769531 187.92 0.769531 194.49 0.769531C196.93 0.929531 199.37 1.06953 201.8 1.26953C205.3 1.54953 208.81 1.71953 212.28 2.21953C216.88 2.87953 221.48 3.68952 226.03 4.64952C230.96 5.68952 235.75 7.23953 240.2 9.63953C244.72 12.0795 248.67 15.0995 249.98 20.4695C249.98 21.6695 249.98 22.8695 249.98 24.0795C249.44 26.4795 248.48 28.6895 247.06 30.7195C244.78 33.9695 241.95 36.6695 238.87 39.1395C232.35 44.3695 225.05 48.3195 217.57 51.9695C217.4 52.0495 217.19 52.0295 217.12 52.0395C217.38 50.8095 217.76 49.6495 217.83 48.4795C217.97 45.9895 217.92 43.4895 217.98 40.9995C218 40.2495 217.57 40.1995 217.01 40.2095C214.79 40.2195 212.57 40.2095 210.35 40.2195C208.46 40.2295 208.67 40.0095 208.65 41.9295C208.64 42.5295 208.46 43.3395 208.76 43.6695C209.09 44.0295 209.9 43.9695 210.51 44.0295C210.93 44.0795 211.22 44.1795 211.22 44.6695C211.21 46.0095 211.28 47.3495 211.2 48.6895C211.13 49.8195 210.37 50.5295 209.26 50.7395C207.2 51.1295 205.82 50.0095 205.81 47.9095C205.8 43.8895 205.8 39.8695 205.8 35.8395C205.8 35.5595 205.8 35.2795 205.83 35.0095C206.01 33.5595 207.12 32.6295 208.61 32.6595C210.14 32.6995 211.1 33.6295 211.18 35.1695C211.2 35.5895 211.2 35.9995 211.19 36.4195C211.17 36.8895 211.38 37.0795 211.85 37.0695C213.83 37.0595 215.81 37.0695 217.91 37.0695C217.87 36.1395 217.86 35.3195 217.79 34.4995C217.54 31.6495 216.1 29.7195 213.38 28.6995C211.05 27.8295 208.65 27.7895 206.27 28.0995C201.29 28.7695 199.18 31.6195 199.23 36.0895C199.28 40.0595 199.22 44.0395 199.25 48.0195C199.28 51.8595 201.21 54.2595 204.96 55.0895C206.29 55.3895 207.67 55.4595 209.18 55.6495C208.83 55.8495 208.59 56.0195 208.32 56.1195C202.55 58.3095 196.81 60.6195 190.98 62.6595C179.92 66.5295 168.64 69.6595 157.23 72.3195C151.49 73.6595 145.72 74.8795 139.93 76.0195C135.19 76.9595 130.41 77.7495 125.64 78.5395C121.5 79.2195 117.36 79.8695 113.2 80.4195C108.86 80.9895 104.5 81.4595 100.14 81.9095C96.51 82.2895 92.88 82.6495 89.25 82.8995C85.01 83.1895 80.76 83.3295 76.52 83.5495C76.16 83.5695 75.79 83.6595 75.43 83.7195C68.86 83.7195 62.3 83.7195 55.73 83.7195C53.25 83.5495 50.76 83.4195 48.28 83.2095C44.65 82.9095 41 82.6895 37.39 82.1795C32.97 81.5495 28.56 80.7695 24.19 79.8395C19.08 78.7495 14.12 77.1395 9.53 74.5795C5.22 72.1895 1.49 69.1895 0.25 64.0395ZM90.38 32.3395C90.47 32.3295 90.56 32.3295 90.65 32.3195C90.77 32.7495 90.91 33.1795 90.99 33.6195C91.85 38.2895 92.7 42.9595 93.55 47.6295C93.93 49.7195 94.29 51.7995 94.67 53.8895C94.88 55.0195 94.92 55.0595 96.11 55.0795C97.59 55.0995 99.07 55.0395 100.55 55.0795C101.31 55.0995 101.69 54.9195 101.82 54.0495C102.15 51.8195 102.63 49.6095 103.04 47.3795C103.92 42.6195 104.78 37.8695 105.67 33.1095C105.72 32.8395 105.89 32.5795 106 32.3195C106.09 32.3395 106.18 32.3495 106.27 32.3695C106.27 34.2095 106.27 36.0495 106.27 37.8995C106.28 43.2595 106.3 48.6195 106.32 53.9795C106.32 55.0595 106.34 55.0695 107.37 55.0795C108.85 55.0895 110.33 55.0695 111.81 55.0595C112.86 55.0495 112.88 55.0395 112.87 53.9795C112.82 51.1195 112.75 48.2495 112.69 45.3895C112.57 40.1695 112.45 34.9495 112.33 29.7295C112.3 28.6095 112.3 28.5895 111.18 28.5895C108.36 28.5795 105.54 28.5795 102.72 28.5895C101.65 28.5895 101.62 28.5995 101.43 29.7095C100.91 32.8495 100.42 35.9895 99.91 39.1295C99.43 42.1295 98.94 45.1195 98.46 48.1195C98.1 47.7395 97.96 47.3195 97.89 46.8995C97.57 44.8995 97.28 42.8895 96.95 40.8795C96.34 37.0995 95.69 33.3295 95.13 29.5495C95.01 28.7595 94.71 28.5695 93.99 28.5695C91.13 28.5995 88.26 28.5795 85.39 28.5795C84.17 28.5795 84.16 28.5995 84.14 29.8095C84.02 36.3695 83.91 42.9295 83.78 49.4895C83.75 51.0095 83.67 52.5395 83.58 54.0595C83.54 54.7695 83.78 55.0695 84.52 55.0595C86.14 55.0395 87.76 55.0495 89.37 55.0795C89.96 55.0895 90.2 54.8495 90.2 54.2695C90.21 53.2995 90.28 52.3295 90.29 51.3595C90.32 45.4895 90.35 39.6195 90.37 33.7495C90.38 33.2995 90.38 32.8195 90.38 32.3395ZM176.42 34.1095C176.48 34.0995 176.54 34.0895 176.61 34.0795C176.68 34.2795 176.76 34.4695 176.82 34.6695C177.92 38.2395 179.01 41.7995 180.1 45.3695C180.95 48.1495 181.79 50.9195 182.62 53.6995C182.82 54.3595 183.04 54.8395 183.9 54.8195C186.44 54.7695 188.98 54.7795 191.53 54.7895C192.05 54.7895 192.31 54.6195 192.32 54.0895C192.32 53.8095 192.33 53.5395 192.33 53.2595C192.33 47.2095 192.33 41.1495 192.33 35.0995C192.33 33.2495 192.31 31.3995 192.33 29.5595C192.34 28.8695 192.14 28.5495 191.37 28.5995C190.31 28.6595 189.24 28.6195 188.18 28.6095C185.86 28.5895 185.86 28.5895 185.9 30.9395C185.97 35.5095 186.04 40.0895 186.1 44.6595C186.12 45.9695 186.1 47.2895 186.1 48.5995C185.77 48.3395 185.63 48.0295 185.54 47.7095C183.78 41.6995 182.02 35.6795 180.29 29.6595C180.06 28.8695 179.69 28.5495 178.85 28.5695C176.35 28.6195 173.86 28.5995 171.36 28.6095C170.14 28.6095 170.14 28.6095 170.14 29.7995C170.14 34.1895 170.14 38.5795 170.13 42.9695C170.13 46.5795 170.12 50.1795 170.13 53.7895C170.13 54.7695 170.16 54.7795 171.13 54.7795C172.33 54.7895 173.53 54.7695 174.74 54.7795C176.99 54.8095 176.68 55.0195 176.66 52.9095C176.59 46.9495 176.47 40.9895 176.38 35.0295C176.37 34.7395 176.4 34.4195 176.42 34.1095ZM150.97 28.5995C149.05 28.5995 147.26 28.5995 145.47 28.5995C144.32 28.5995 144.31 28.5995 144.31 29.7295C144.3 32.1295 144.3 34.5395 144.31 36.9395C144.31 40.6795 144.3 44.4295 144.32 48.1695C144.36 52.8695 146.82 55.1395 151.33 55.6595C152.7 55.8195 154.11 55.8095 155.48 55.6695C156.65 55.5495 157.85 55.2795 158.95 54.8495C160.88 54.0995 162.1 52.6395 162.53 50.5895C162.69 49.8295 162.79 49.0395 162.8 48.2695C162.82 43.1395 162.81 38.0095 162.81 32.8795C162.81 31.7195 162.79 30.5695 162.81 29.4095C162.82 28.8195 162.61 28.5795 162.01 28.5995C160.49 28.6295 158.96 28.6195 157.44 28.6295C156.24 28.6395 156.24 28.6495 156.22 29.8495C156.22 30.1695 156.22 30.4995 156.22 30.8195C156.22 36.4595 156.23 42.0995 156.21 47.7295C156.21 48.3195 156.15 48.9395 155.97 49.4895C155.6 50.6195 154.66 51.1295 153.35 51.0495C152.14 50.9695 151.34 50.3295 151.12 49.1595C151.01 48.5795 150.99 47.9695 150.99 47.3695C150.98 41.5495 150.99 35.7395 150.99 29.9195C150.97 29.5195 150.97 29.1095 150.97 28.5995ZM56.91 55.0895C59.04 55.0895 61.02 55.0595 63 55.1095C63.74 55.1295 64.07 54.8895 64.17 54.1495C64.39 52.4595 64.66 50.7795 64.91 49.0895C65.74 43.5795 66.56 38.0595 67.4 32.5495C67.44 32.2895 67.6 32.0495 67.71 31.7895C68.06 32.9295 68.18 34.0195 68.34 35.1095C69.07 40.0295 69.81 44.9595 70.54 49.8795C70.76 51.3395 70.97 52.7995 71.2 54.2495C71.26 54.6295 71.27 55.0895 71.89 55.0895C74 55.0695 76.12 55.0795 78.32 55.0795C78.22 54.3595 78.17 53.8195 78.07 53.2895C77.36 49.4395 76.64 45.5895 75.93 41.7495C75.19 37.7195 74.46 33.6795 73.71 29.6495C73.52 28.6495 73.5 28.6295 72.43 28.6295C69.2 28.6195 65.96 28.6395 62.73 28.5995C61.96 28.5895 61.72 28.8495 61.59 29.5995C61.03 32.9195 60.39 36.2195 59.78 39.5295C58.84 44.6295 57.9 49.7395 56.91 55.0895ZM126.37 46.3295C124.58 46.3295 122.97 46.3295 121.36 46.3295C119.31 46.3295 119.31 46.3195 119.35 48.3995C119.42 51.8095 120.93 54.1195 124.06 55.1595C127.54 56.3195 131.06 56.3095 134.48 54.8295C136.18 54.0895 137.44 52.8295 137.79 50.9895C138.08 49.5195 138.09 47.9695 138.1 46.4595C138.11 45.0095 137.45 43.7695 136.42 42.7795C135.75 42.1495 135.04 41.5395 134.26 41.0595C132.49 39.9795 130.65 39.0095 128.87 37.9395C128.16 37.5195 127.46 37.0295 126.88 36.4495C126.05 35.6195 125.98 34.2795 126.58 33.3695C127.11 32.5695 128.27 32.1695 129.29 32.4495C130.47 32.7795 130.98 33.4595 131.03 34.7895C131.04 35.0695 131.05 35.3495 131.04 35.6195C131.02 36.0895 131.25 36.3095 131.7 36.3095C133.62 36.3195 135.55 36.3095 137.56 36.3095C137.56 35.6095 137.57 34.9595 137.56 34.3195C137.52 31.3695 136 29.3595 133.14 28.5395C130.47 27.7695 127.75 27.7295 125.06 28.3695C122.37 29.0095 120.34 30.4795 119.76 33.3895C119.18 36.3095 119.66 38.9195 122.14 40.8695C122.94 41.4995 123.78 42.0795 124.64 42.5995C126.1 43.4795 127.63 44.2595 129.07 45.1795C129.83 45.6695 130.57 46.2895 131.12 46.9995C132.03 48.1795 131.66 50.1395 130.53 50.8295C128.67 51.9695 126.44 50.7795 126.37 48.5895C126.35 47.8895 126.37 47.1595 126.37 46.3295Z" fill="#A4A5A9"/>
</g>
<defs>
<clipPath id="clip0_299_341">
<rect width="250" height="84" fill="white"/>
</clipPath>
</defs>
</svg>
