<svg width="224" height="53" viewBox="0 0 224 53" fill="none" xmlns="http://www.w3.org/2000/svg">
<g clip-path="url(#clip0_299_344)">
<path d="M33.739 52.3601C27.669 52.2701 22.0391 50.8101 17.1991 46.9501C16.4991 46.3901 15.8091 45.7901 15.2791 45.0801C14.1991 43.6301 12.929 42.4501 11.489 41.3501C7.92905 38.6101 6.34904 34.7301 5.79904 30.3901C5.52904 28.2201 5.52907 25.9501 4.26907 24.0801C3.54907 23.0101 2.53904 22.1201 1.54904 21.2701C0.929043 20.7401 0.109048 20.3001 0.429048 19.4201C0.649048 18.8001 1.24907 18.0401 1.82907 17.8901C4.35907 17.2001 6.11906 15.6801 7.68906 13.6301C11.5291 8.61012 16.3391 4.76011 22.2691 2.42011C27.0491 0.53011 31.9991 -0.149895 37.1291 0.150105C42.1191 0.430105 46.6991 1.88012 50.8891 4.57012C54.9491 7.18012 58.1991 10.6301 60.6291 14.7501C62.1191 17.2701 64.1991 18.8001 66.8391 19.7601C67.0391 19.8301 67.2391 19.9101 67.4491 19.9801C68.2191 20.2501 68.7491 20.7101 68.7791 21.6001C68.8091 22.5501 68.0791 22.8201 67.4391 23.2301C66.6491 23.7401 65.629 24.1901 65.229 24.9501C64.519 26.2801 64.139 27.8101 63.729 29.2801C63.209 31.1401 62.8891 33.0601 62.3291 34.9101C61.3091 38.3001 58.809 40.4701 55.979 42.3701C54.959 43.0501 54.039 43.9201 53.229 44.8401C50.659 47.7601 47.4391 49.6001 43.8091 50.8201C40.5291 51.8801 37.179 52.3801 33.739 52.3601ZM34.2591 50.4501C37.2191 50.5901 40.4891 50.0001 43.6491 48.8501C46.7591 47.7201 49.5591 46.1101 51.7591 43.5601C52.5291 42.6601 52.949 41.7201 52.679 40.5101C52.339 39.0501 52.189 37.5301 51.729 36.1101C50.239 31.5001 47.299 28.1301 42.8091 26.2001C38.0091 24.1401 32.999 23.8701 27.919 24.7501C21.829 25.8001 17.699 29.1901 15.919 35.2201C14.739 39.2101 14.5491 42.9501 18.5591 45.6301C18.8291 45.8101 19.0691 46.0301 19.3291 46.2101C23.6891 49.2301 28.5491 50.5501 34.2591 50.4501ZM12.9491 34.0601C13.8991 33.9101 14.4291 33.6201 14.7591 32.8101C15.6691 30.5601 16.9791 28.5601 18.8091 26.9301C19.2591 26.5301 19.3591 26.1801 18.8891 25.6801C16.9591 23.6401 15.959 21.1301 15.359 18.4301C14.839 16.0901 14.369 13.7401 13.789 11.4201C13.539 10.4401 13.169 10.3701 12.479 11.0801C11.479 12.1101 10.5391 13.1901 9.55905 14.2401C9.11905 14.7101 9.16905 15.1201 9.42905 15.6901C9.96905 16.8601 10.429 18.0601 10.849 19.2801C11.449 21.0501 11.939 22.8601 13.539 24.0601C13.669 24.1501 13.709 24.3501 13.799 24.5001C13.619 24.5801 13.4291 24.7301 13.2491 24.7201C12.9391 24.7001 12.6091 24.6301 12.3291 24.5101C10.9091 23.8901 9.98907 22.7701 9.32907 21.4101C8.79907 20.3201 8.28904 19.2101 7.79904 18.1001C7.47904 17.3801 7.16905 17.2201 6.42905 17.7201C5.58905 18.3001 4.62904 18.7401 3.66904 19.1301C2.90904 19.4401 2.72908 19.6401 3.45908 20.2201C5.55908 21.8701 6.86903 24.0701 7.15903 26.6801C7.43903 29.2201 8.95904 30.9201 10.549 32.6001C11.179 33.2501 12.1491 33.5901 12.9491 34.0601ZM37.599 1.92011C36.829 1.89011 36.5991 2.33011 36.4591 2.97011C36.0091 5.11011 35.4891 7.23011 35.0691 9.37011C34.3791 12.9501 34.079 16.5401 34.929 20.1501C35.449 22.3601 35.649 22.5501 37.859 22.8301C38.359 22.8901 38.8491 22.9901 39.3391 23.1201C40.1591 23.3501 40.789 23.0901 41.109 22.3301C41.649 21.0501 42.419 19.7801 42.549 18.4401C42.809 15.8901 42.709 13.3101 42.719 10.7401C42.729 8.49012 42.5891 6.23012 42.7091 3.99012C42.7491 3.15012 42.5891 2.78011 41.8291 2.64011C40.4191 2.40011 39.009 2.16011 37.599 1.92011ZM46.5091 25.9401C46.8791 25.8401 47.099 25.8201 47.289 25.7301C49.059 24.8501 50.2291 23.5001 50.6291 21.5201C50.9791 19.8001 51.259 18.0601 51.789 16.4001C52.369 14.6001 53.2091 12.8901 53.9491 11.1401C54.3691 10.1601 54.2591 9.36012 53.3191 8.71012C51.4291 7.42012 49.589 6.06011 47.679 4.81011C46.629 4.12011 46.2291 4.33011 46.0891 5.62011C45.8091 8.04011 45.589 10.4601 45.419 12.8801C45.159 16.5501 45.3691 20.3101 43.0291 23.5101C42.9291 23.6401 42.9491 24.0401 43.0291 24.0901C44.1991 24.7501 45.4091 25.3701 46.5091 25.9401ZM33.0791 1.70011C30.4191 2.25011 27.759 2.78012 25.109 3.35012C24.529 3.48012 23.9791 3.72011 24.3191 4.53011C25.3691 7.05011 25.5091 9.74012 25.8191 12.4101C26.0891 14.7901 26.4291 17.1701 26.9391 19.5101C27.5091 22.1301 28.409 22.7301 30.479 22.5101C31.419 22.4101 31.3891 21.9701 31.3691 21.2201C31.2991 18.9401 31.009 16.5901 31.429 14.3901C32.129 10.6801 33.299 7.05011 34.299 3.40011C34.729 1.84011 34.7691 1.85011 33.0791 1.70011ZM22.549 24.4201C23.379 24.0901 24.0891 23.8601 24.7591 23.5201C24.9091 23.4401 25.0291 23.0001 24.9491 22.8001C23.8291 19.8901 23.8691 16.8401 23.8091 13.8001C23.7591 11.1801 23.4891 8.59012 22.5591 6.10012C22.0391 4.70012 21.7291 4.51011 20.4591 5.25011C18.7591 6.24011 17.139 7.3601 15.489 8.4301C14.949 8.7801 14.7891 9.18012 15.0591 9.88012C15.8991 12.0801 16.7191 14.2901 17.3891 16.5501C18.1691 19.1601 19.0191 21.6801 21.1891 23.5001C21.6291 23.8601 22.119 24.1301 22.549 24.4201ZM61.659 19.5201C61.399 19.0701 61.2691 18.7901 61.0891 18.5401C60.5991 17.8401 60.0891 17.1501 59.5891 16.4501C58.5491 14.9901 57.5291 13.5201 56.4591 12.0801C56.2891 11.8501 55.9391 11.0801 55.5791 11.9601C54.5091 14.6101 53.3491 17.2201 53.3291 20.1901C53.3091 23.2101 52.599 26.0201 50.169 28.1201C49.719 28.5101 49.789 28.8701 50.119 29.3301C50.869 30.3801 51.5791 31.4501 52.2691 32.5301C52.8491 33.4501 53.2891 33.5401 53.9491 32.6301C54.4891 31.8901 54.9291 31.0501 55.2691 30.1901C56.4091 27.3901 58.3891 25.1501 60.0791 22.7201C60.7591 21.7501 61.149 20.5801 61.659 19.5201ZM66.159 21.5501C65.169 21.0701 64.4291 20.7401 63.7091 20.3601C63.1991 20.0901 63.0191 20.2101 62.7791 20.7501C62.0991 22.3201 61.419 23.9001 60.549 25.3601C59.389 27.3101 58.389 29.2901 57.739 31.4801C57.319 32.8901 56.839 34.6001 55.789 35.4301C54.129 36.7501 53.949 38.0901 54.479 39.8501C54.499 39.9201 54.4891 39.9901 54.4991 40.0601C54.5491 40.6101 54.849 40.7801 55.289 40.4701C57.149 39.1801 59.089 37.8801 59.919 35.6701C60.669 33.6701 61.199 31.5801 61.719 29.5001C62.479 26.5401 62.759 23.3401 66.159 21.5501ZM8.87906 34.8601C9.45906 36.3101 10.319 37.6701 11.489 38.8201C11.949 39.2701 12.5391 39.5801 13.0691 39.9501C13.2091 39.3001 13.399 38.6601 13.469 38.0101C13.499 37.7101 13.3691 37.2201 13.1491 37.1001C11.7791 36.3201 10.3691 35.6301 8.87906 34.8601Z" fill="#A4A5A9"/>
<path d="M168.949 25.5803C168.949 28.7003 168.978 31.8303 168.938 34.9503C168.908 37.6703 166.738 39.1303 164.218 38.0403C163.588 37.7703 163.128 36.9703 162.748 36.3203C162.458 35.8303 162.369 35.5303 161.779 36.0203C157.699 39.3503 152.449 39.0303 148.829 35.2203C148.249 34.6103 147.959 34.5803 147.449 35.2703C146.309 36.8203 144.709 37.6803 142.829 37.9803C139.169 38.5503 135.729 38.3103 133.079 35.2203C131.449 33.3203 130.819 31.0703 130.779 28.6603C130.709 24.4303 130.719 20.1903 130.769 15.9603C130.799 13.2403 133.258 11.8403 135.728 13.0603C136.808 13.5903 137.248 14.5003 137.248 15.6903C137.238 19.5703 137.209 23.4403 137.279 27.3203C137.299 28.4503 137.498 29.6203 137.858 30.6903C138.708 33.2103 141.388 34.2903 143.718 33.0303C145.558 32.0303 146.818 30.6703 146.738 28.2703C146.598 24.1803 146.699 20.0903 146.699 16.0003C146.699 13.8203 147.628 12.8203 149.658 12.7503C151.858 12.6703 153.068 13.7003 153.108 15.9103C153.178 19.5003 153.098 23.0903 153.158 26.6803C153.178 27.9203 153.258 29.2103 153.598 30.3903C154.508 33.5603 158.038 34.5303 160.558 32.4003C161.818 31.3303 162.558 30.1503 162.498 28.3403C162.358 24.2503 162.449 20.1603 162.459 16.0703C162.469 13.2103 165.079 11.7503 167.589 13.1703C168.619 13.7603 168.938 14.7103 168.938 15.8003C168.948 19.0503 168.939 22.3103 168.949 25.5803C168.939 25.5803 168.939 25.5803 168.949 25.5803Z" fill="#A4A5A9"/>
<path d="M125.779 27.54C125.779 31.31 125.799 35.0801 125.769 38.8501C125.749 41.2301 125.219 43.49 123.769 45.43C122.009 47.78 119.479 48.6701 116.699 49.0701C112.539 49.6801 108.749 48.96 105.669 45.89C105.139 45.3601 104.729 44.6 104.539 43.87C104.139 42.28 104.779 41.2101 106.319 40.5201C108.019 39.7601 109.039 40 110.089 41.39C110.329 41.7 110.539 42.0401 110.769 42.3601C111.959 44.01 113.929 44.6901 116.149 44.1001C117.989 43.6101 118.909 42.2601 119.179 40.4401C119.329 39.4101 119.409 38.37 119.479 37.34C119.499 37.04 119.369 36.73 119.309 36.42C119.029 36.53 118.719 36.6 118.459 36.75C115.759 38.2701 112.829 38.63 109.909 37.9C105.739 36.85 103.299 33.4001 103.269 29.0801C103.239 25.1001 103.219 21.1101 103.209 17.1301C103.209 16.7001 103.209 16.27 103.239 15.84C103.419 13.43 104.579 12.49 107.009 12.75C108.669 12.93 109.619 13.9101 109.629 15.5801C109.659 19.4601 109.609 23.3401 109.669 27.2101C109.679 28.2401 109.839 29.29 110.119 30.28C110.889 33.02 113.559 34.2701 116.179 33.0201C118.089 32.1101 119.499 30.8501 119.389 28.3201C119.209 24.3401 119.329 20.35 119.359 16.36C119.369 15.65 119.439 14.9 119.689 14.25C120.199 12.95 121.749 12.42 123.589 12.79C124.959 13.06 125.749 13.98 125.759 15.45C125.789 19.5 125.779 23.52 125.779 27.54Z" fill="#A4A5A9"/>
<path d="M206.358 26.48C205.438 25.76 204.498 25.15 203.718 24.39C201.058 21.83 200.758 15.2101 206.058 13.2101C207.418 12.7001 208.898 12.21 210.318 12.2C214.288 12.17 218.258 12.39 222.228 12.53C223.148 12.56 223.248 13.25 223.248 14C223.238 17.55 223.248 21.1 223.238 24.65C223.238 28.13 223.248 31.61 223.238 35.09C223.228 37.2 222.218 38.26 220.218 38.31C218.028 38.36 216.848 37.28 216.808 35.09C216.768 33.26 216.768 31.43 216.808 29.6C216.828 28.7201 216.508 28.34 215.618 28.4C214.938 28.45 214.258 28.44 213.578 28.47C210.728 28.6 209.638 29.45 208.808 32.22C208.418 33.52 208.038 34.83 207.638 36.13C207.068 38 205.648 38.68 203.538 38.09C201.718 37.59 200.888 36.2 201.428 34.39C201.898 32.85 202.438 31.33 203.038 29.84C203.628 28.4 204.318 27.77 206.358 26.48ZM216.778 19.91C216.778 19.01 216.768 18.12 216.788 17.22C216.808 16.6 216.518 16.25 215.918 16.26C214.488 16.28 213.038 16.19 211.648 16.42C209.838 16.72 208.598 18.2601 208.598 19.8201C208.598 21.6001 209.738 22.97 211.758 23.3C213.158 23.53 214.608 23.5001 216.038 23.4901C216.288 23.4901 216.728 23 216.758 22.7C216.838 21.78 216.778 20.84 216.778 19.91Z" fill="#A4A5A9"/>
<path d="M196.638 25.4805C196.638 28.5705 196.588 31.6605 196.648 34.7405C196.708 37.7105 194.858 38.6205 192.388 38.1805C191.368 38.0005 190.658 37.3905 190.458 36.4005C190.258 35.4205 189.908 35.5605 189.378 36.1105C186.408 39.1605 178.618 39.2205 175.658 34.4605C174.648 32.8305 174.048 31.0905 174.038 29.1805C174.018 24.7305 174.018 20.2705 174.038 15.8205C174.048 13.7505 175.108 12.7205 177.178 12.7105C179.338 12.7105 180.468 13.7305 180.478 15.7905C180.498 19.7405 180.438 23.6905 180.518 27.6405C180.538 28.7305 180.758 29.8705 181.168 30.8705C182.058 33.0605 184.128 33.9405 186.378 33.2305C187.798 32.7805 188.968 31.9505 189.748 30.6905C190.068 30.1805 190.188 29.4805 190.198 28.8605C190.238 24.6205 190.208 20.3905 190.218 16.1505C190.228 13.4805 191.538 12.3705 194.198 12.7605C195.818 12.9905 196.608 13.9105 196.628 15.7605C196.668 19.0205 196.638 22.2505 196.638 25.4805Z" fill="#A4A5A9"/>
<path d="M83.7299 25.3503C84.0099 26.7103 84.2299 28.3603 84.7099 29.9103C85.3699 32.0403 87.1499 33.2603 89.3099 33.3203C91.3899 33.3703 93.0299 32.2003 93.8799 30.0403C94.5199 28.4203 95.3999 27.8503 96.9999 28.0403C99.2499 28.3003 100.38 30.1703 99.4999 32.2603C98.2499 35.2003 96.0199 37.0103 92.9299 37.7703C90.6599 38.3303 88.3799 38.3603 86.1099 37.8903C82.2899 37.0903 79.6499 34.7803 78.3499 31.1603C76.9399 27.2203 76.9599 23.1803 78.5399 19.2703C80.1099 15.4003 83.1299 13.3003 87.2199 12.8003C90.5699 12.4003 93.8599 12.6803 96.6399 14.8503C97.5999 15.6003 98.4299 16.6103 99.0899 17.6503C99.8999 18.9403 99.4699 20.2503 98.1799 21.2203C96.8299 22.2203 95.4899 22.2003 94.3899 21.0803C93.9399 20.6203 93.5599 20.0903 93.1899 19.5703C91.9099 17.7703 90.15 17.0703 88.03 17.5303C86 17.9703 84.8599 19.4203 84.3799 21.3603C84.0799 22.5703 83.9699 23.8203 83.7299 25.3503Z" fill="#A4A5A9"/>
<path d="M46.4582 33.8801C46.1982 34.6901 46.0182 35.7701 45.5382 36.6901C44.8382 38.0601 43.7082 38.9801 42.0382 38.9401C40.4382 38.9001 39.4582 37.9301 38.7982 36.6401C37.8582 34.8201 37.8782 32.9001 38.7282 31.0401C39.5782 29.1801 40.9482 28.3101 42.6582 28.4501C44.2382 28.5801 45.5082 29.7301 46.0482 31.6001C46.2282 32.2601 46.2882 32.9401 46.4582 33.8801ZM42.1182 31.9201C41.6682 31.4401 41.3882 31.1401 41.1082 30.8401C40.8282 31.1801 40.3582 31.5101 40.3282 31.8801C40.2982 32.2001 40.7382 32.5801 40.9682 32.9301C41.2982 32.6301 41.6282 32.3401 42.1182 31.9201Z" fill="#A4A5A9"/>
<path d="M20.4785 33.2598C20.7885 32.3398 20.9686 31.1798 21.5286 30.2298C22.8586 27.9498 25.6286 27.8498 27.2786 29.9098C28.8186 31.8198 29.0185 35.1198 27.7185 37.2098C26.9485 38.4398 25.8685 39.1198 24.3885 38.9298C22.7085 38.7098 21.7385 37.5598 21.1585 36.0998C20.8285 35.2898 20.7385 34.3898 20.4785 33.2598ZM24.2585 32.2298C23.7485 31.7898 23.3885 31.4798 23.0385 31.1798C22.8085 31.5298 22.3485 31.9298 22.4085 32.2198C22.4885 32.6398 22.9585 32.9798 23.2585 33.3598C23.5185 33.0498 23.7885 32.7398 24.2585 32.2298Z" fill="#A4A5A9"/>
<path d="M39.4595 42.5802C37.7495 44.7702 35.7495 46.3902 32.8795 46.2402C30.1795 46.1002 28.4595 44.3602 27.0195 42.1602C31.0995 44.8702 35.2095 44.8402 39.4595 42.5802Z" fill="#A4A5A9"/>
</g>
<defs>
<clipPath id="clip0_299_344">
<rect width="224" height="53" fill="white"/>
</clipPath>
</defs>
</svg>
